<?xml version="1.0" encoding="UTF-8" standalone="no"?>
<!-- Generator: Adobe Illustrator 18.0.0, SVG Export Plug-In . SVG Version: 6.00 Build 0)  -->

<svg
   xmlns:dc="http://purl.org/dc/elements/1.1/"
   xmlns:cc="http://creativecommons.org/ns#"
   xmlns:rdf="http://www.w3.org/1999/02/22-rdf-syntax-ns#"
   xmlns:svg="http://www.w3.org/2000/svg"
   xmlns="http://www.w3.org/2000/svg"
   xmlns:sodipodi="http://sodipodi.sourceforge.net/DTD/sodipodi-0.dtd"
   xmlns:inkscape="http://www.inkscape.org/namespaces/inkscape"
   version="1.1"
   id="Capa_1"
   x="0px"
   y="0px"
   viewBox="0 0 487.189 487.189"
   style="enable-background:new 0 0 487.189 487.189;"
   xml:space="preserve"
   inkscape:version="0.48.4 r9939"
   width="100%"
   height="100%"
   sodipodi:docname="tool_open.svg"><metadata
     id="metadata47"><rdf:RDF><cc:Work
         rdf:about=""><dc:format>image/svg+xml</dc:format><dc:type
           rdf:resource="http://purl.org/dc/dcmitype/StillImage" /></cc:Work></rdf:RDF></metadata><defs
     id="defs45" /><sodipodi:namedview
     pagecolor="#ffffff"
     bordercolor="#666666"
     borderopacity="1"
     objecttolerance="10"
     gridtolerance="10"
     guidetolerance="10"
     inkscape:pageopacity="0"
     inkscape:pageshadow="2"
     inkscape:window-width="910"
     inkscape:window-height="723"
     id="namedview43"
     showgrid="false"
     inkscape:zoom="0.48441159"
     inkscape:cx="247.72322"
     inkscape:cy="243.5945"
     inkscape:window-x="0"
     inkscape:window-y="0"
     inkscape:window-maximized="0"
     inkscape:current-layer="Capa_1" /><g
     id="g3"
     style="fill:#008000;fill-opacity:1;stroke:#008000;stroke-opacity:1"><g
       id="g5"
       style="fill:#008000;fill-opacity:1;stroke:#008000;stroke-opacity:1"><path
         d="M470.766,201.645H328.514c-0.679,12.523-5.831,23.854-14.075,32.277h140.188v107.525l-16.752-58.983    c-1.971-6.934-8.307-11.726-15.525-11.726H80.981v-89.762h98.881v-32.277H64.843c-8.92,0-16.139,7.225-16.139,16.139v105.9H16.427    c-5.059,0-9.834,2.371-12.877,6.406c-3.057,4.043-4.033,9.276-2.647,14.146l46.049,162.18    c3.374,11.881,14.224,20.077,26.574,20.075l385.762-0.065c15.253-0.003,27.615-12.368,27.615-27.62V217.783    C486.903,208.871,479.687,201.645,470.766,201.645z"
         id="path7"
         style="fill:#008000;fill-opacity:1;stroke:#008000;stroke-opacity:1" /><path
         d="M486.902,487.174v-0.14C486.836,487.162,486.828,487.219,486.902,487.174z"
         id="path9"
         style="fill:#008000;fill-opacity:1;stroke:#008000;stroke-opacity:1" /></g><path
       d="M179.373,101.74h32.766v97.171c0,9.865,7.975,17.848,17.824,17.848h48.699c9.867,0,17.857-7.982,17.857-17.848V101.74   h32.75c5.404,0,10.305-3.27,12.387-8.282c2.064-4.988,0.932-10.756-2.914-14.594L263.783,3.931C261.184,1.314,257.748,0,254.313,0   c-3.42,0-6.855,1.314-9.473,3.931l-74.924,74.934c-3.861,3.838-4.98,9.605-2.898,14.594   C169.098,98.471,173.967,101.74,179.373,101.74z"
       id="path11"
       style="fill:#008000;fill-opacity:1;stroke:#008000;stroke-opacity:1" /></g><g
     id="g13" /><g
     id="g15" /><g
     id="g17" /><g
     id="g19" /><g
     id="g21" /><g
     id="g23" /><g
     id="g25" /><g
     id="g27" /><g
     id="g29" /><g
     id="g31" /><g
     id="g33" /><g
     id="g35" /><g
     id="g37" /><g
     id="g39" /><g
     id="g41" /></svg>