<?xml version="1.0" encoding="UTF-8" standalone="no"?>
<!-- Generator: Adobe Illustrator 19.0.0, SVG Export Plug-In . SVG Version: 6.00 Build 0)  -->

<svg
   xmlns:dc="http://purl.org/dc/elements/1.1/"
   xmlns:cc="http://creativecommons.org/ns#"
   xmlns:rdf="http://www.w3.org/1999/02/22-rdf-syntax-ns#"
   xmlns:svg="http://www.w3.org/2000/svg"
   xmlns="http://www.w3.org/2000/svg"
   xmlns:sodipodi="http://sodipodi.sourceforge.net/DTD/sodipodi-0.dtd"
   xmlns:inkscape="http://www.inkscape.org/namespaces/inkscape"
   version="1.1"
   id="Capa_1"
   x="0px"
   y="0px"
   viewBox="0 0 490 490"
   style="enable-background:new 0 0 490 490;"
   xml:space="preserve"
   width="512px"
   height="512px"
   inkscape:version="0.48.4 r9939"
   sodipodi:docname="tool_delselection.svg"><metadata
     id="metadata43"><rdf:RDF><cc:Work
         rdf:about=""><dc:format>image/svg+xml</dc:format><dc:type
           rdf:resource="http://purl.org/dc/dcmitype/StillImage" /></cc:Work></rdf:RDF></metadata><defs
     id="defs41" /><sodipodi:namedview
     pagecolor="#ffffff"
     bordercolor="#666666"
     borderopacity="1"
     objecttolerance="10"
     gridtolerance="10"
     guidetolerance="10"
     inkscape:pageopacity="0"
     inkscape:pageshadow="2"
     inkscape:window-width="1083"
     inkscape:window-height="912"
     id="namedview39"
     showgrid="true"
     inkscape:zoom="0.65186405"
     inkscape:cx="47.34735"
     inkscape:cy="202.55943"
     inkscape:window-x="0"
     inkscape:window-y="0"
     inkscape:window-maximized="0"
     inkscape:current-layer="Capa_1"><inkscape:grid
       type="xygrid"
       id="grid3022" /></sodipodi:namedview><rect
     style="fill:#ff7800;fill-opacity:1;stroke:#ff7800;stroke-opacity:1"
     id="rect5"
     height="57.78569"
     width="188.45471"
     y="108.32373"
     x="150.291"
     ry="28.892845" /><path
     style="fill:#ff7800;fill-opacity:1;stroke:#ff7800;stroke-opacity:1"
     d="M 240.84375,-1.9375 C 183.48513,-1.0635473 128.71306,33.480206 102.87062,84.380994 77.342461,132.51038 79.206199,193.72373 107.63153,240.3129 153.4188,324.93896 199.22388,409.55541 245,494.1875 293.43019,404.33967 342.41072,314.74966 390.52686,224.75677 415.19472,172.56218 407.96475,107.02675 372.67074,61.48924 342.19044,20.76546 291.89432,-3.6339765 240.84375,-1.9375 z M 243.375,32.625 c 47.61912,-1.168832 94.01142,27.627967 114.47846,70.67568 18.733,37.56804 16.36401,84.83593 -5.91447,120.53944 C 316.29266,289.72674 280.64633,355.61337 245,421.5 207.15154,351.30138 168.78301,281.22361 131.2589,210.94979 110.24829,167.33349 118.10086,112.15967 150.15625,76.03125 173.31665,49.094609 207.87842,32.924744 243.375,32.625 z"
     id="path7"
     inkscape:connector-curvature="0" /><g
     id="g9" /><g
     id="g11" /><g
     id="g13" /><g
     id="g15" /><g
     id="g17" /><g
     id="g19" /><g
     id="g21" /><g
     id="g23" /><g
     id="g25" /><g
     id="g27" /><g
     id="g29" /><g
     id="g31" /><g
     id="g33" /><g
     id="g35" /><g
     id="g37" /><path
     style="fill:#ff7800;fill-opacity:1;stroke:#ff7800;stroke-width:3.06812429000000009;stroke-miterlimit:4;stroke-opacity:1;stroke-dasharray:none"
     d="M 251.39437,505.81484 C 246.15055,496.54605 131.6669,284.92621 114.2028,252.22005 97.160829,220.30442 92.053313,203.22505 90.528163,173.05274 88.066295,124.34921 105.16485,80.528046 139.74043,46.928671 198.13875,-9.8208289 283.07377,-16.951646 351.33492,29.164013 c 20.17338,13.62867 41.58364,38.286201 53.1511,61.212472 22.77129,45.131875 23.41775,102.600885 1.63847,145.657505 -5.58595,11.04313 -148.78208,276.46189 -149.68775,277.45116 -0.23893,0.26099 -2.50801,-3.19065 -5.04237,-7.67031 l 0,0 z m 61.77126,-169.22137 c 66.82632,-123.68024 62.80872,-116.07825 66.71852,-126.24274 4.14051,-10.76426 7.72097,-31.85214 7.70661,-45.38966 -0.0575,-54.20735 -34.31682,-103.632866 -85.12887,-122.814513 -17.70108,-6.682191 -32.0968,-8.953554 -51.33469,-8.099612 -21.80941,0.96809 -33.22954,3.848931 -52.98154,13.36512 -50.01137,24.094662 -78.57878,75.961815 -72.76879,132.119425 2.53636,24.51558 6.62611,33.4247 64.35338,140.18729 64.11187,118.57048 66.14762,122.28576 66.6674,121.66994 0.22238,-0.26347 25.76797,-47.42133 56.76798,-104.79525 z"
     id="path3001"
     inkscape:connector-curvature="0"
     transform="scale(0.95703125,0.95703125)" /></svg>