<?xml version="1.0" encoding="UTF-8" standalone="no"?>
<!-- Generator: Adobe Illustrator 16.0.0, SVG Export Plug-In . SVG Version: 6.00 Build 0)  -->

<svg
   xmlns:dc="http://purl.org/dc/elements/1.1/"
   xmlns:cc="http://creativecommons.org/ns#"
   xmlns:rdf="http://www.w3.org/1999/02/22-rdf-syntax-ns#"
   xmlns:svg="http://www.w3.org/2000/svg"
   xmlns="http://www.w3.org/2000/svg"
   xmlns:sodipodi="http://sodipodi.sourceforge.net/DTD/sodipodi-0.dtd"
   xmlns:inkscape="http://www.inkscape.org/namespaces/inkscape"
   version="1.1"
   id="Capa_1"
   x="0px"
   y="0px"
   width="987.331px"
   height="987.332px"
   viewBox="0 0 987.331 987.332"
   style="enable-background:new 0 0 987.331 987.332;"
   xml:space="preserve"
   inkscape:version="0.48.4 r9939"
   sodipodi:docname="tool_select.svg"><metadata
     id="metadata43"><rdf:RDF><cc:Work
         rdf:about=""><dc:format>image/svg+xml</dc:format><dc:type
           rdf:resource="http://purl.org/dc/dcmitype/StillImage" /></cc:Work></rdf:RDF></metadata><defs
     id="defs41" /><sodipodi:namedview
     pagecolor="#ffffff"
     bordercolor="#666666"
     borderopacity="1"
     objecttolerance="10"
     gridtolerance="10"
     guidetolerance="10"
     inkscape:pageopacity="0"
     inkscape:pageshadow="2"
     inkscape:window-width="1835"
     inkscape:window-height="644"
     id="namedview39"
     showgrid="false"
     inkscape:zoom="0.23902801"
     inkscape:cx="493.66548"
     inkscape:cy="493.66597"
     inkscape:window-x="0"
     inkscape:window-y="0"
     inkscape:window-maximized="0"
     inkscape:current-layer="Capa_1" /><g
     id="g3"><path
       d="M120,955.166h683.1c66.2,0,120-53.801,120-120v-467.1l-120,120v347.1H120v-683h547.3l96.3-96.3   c9.101-9.1,19.101-17,29.801-23.7H120c-66.2,0-120,53.8-120,120v683.1C0,901.365,53.8,955.166,120,955.166z"
       id="path5" /><path
       d="M958.2,99.465c-19.4-20.1-44.8-30.8-70.5-32.3c-2.101-0.1-4.101-0.2-6.2-0.2c-27.3,0-54.6,10.4-75.5,31.3l-334,334   c-11.3-12.101-81.1-82.4-81.1-82.4c-20.801-20.8-48.2-31.3-75.5-31.3c-27.3,0-54.601,10.4-75.5,31.3c-41.7,41.7-41.7,109.3,0,151   l81.8,81.801l75.5,75.5c20,20,47.2,31.301,75.5,31.301s55.5-11.201,75.5-31.301l406.2-406.2   C996,210.266,999.2,141.766,958.2,99.465z"
       id="path7" /></g><g
     id="g9" /><g
     id="g11" /><g
     id="g13" /><g
     id="g15" /><g
     id="g17" /><g
     id="g19" /><g
     id="g21" /><g
     id="g23" /><g
     id="g25" /><g
     id="g27" /><g
     id="g29" /><g
     id="g31" /><g
     id="g33" /><g
     id="g35" /><g
     id="g37" /><path
     style="fill:#191970;fill-opacity:1;stroke:#000000;stroke-width:4.18360996;stroke-opacity:1"
     d="M 427.63342,674.90102 C 412.73222,667.47544 381.16218,638.63929 316.56239,573.44847 214.49145,470.44369 209.73139,463.18091 213.5024,416.20203 c 4.31137,-53.71062 48.2643,-94.71702 101.52295,-94.71702 33.96389,0 53.64457,12.0265 107.72709,65.83003 l 49.15655,48.90297 174.66658,-174.39126 C 834.67502,74.023794 838.9267,70.551433 880.99298,70.376529 937.15289,70.143027 983.43545,115.1641 983.82445,170.40516 c 0.33092,46.99752 7.66738,38.1843 -231.05673,277.56735 -145.92129,146.32411 -225.93205,223.58534 -237.20405,229.05265 -24.77307,12.01583 -61.32709,11.1328 -87.93025,-2.12414 z"
     id="path3020"
     inkscape:connector-curvature="0"
     transform="translate(-1.1718735e-5,0)" /><path
     style="fill:#191970;fill-opacity:1;stroke:#000000;stroke-width:4.18360996;stroke-opacity:1"
     d="M 91.202211,949.15967 C 68.423274,942.10643 45.370545,927.38268 31.21645,910.84679 2.1093435,876.8417 3.3418982,895.43504 3.387269,491.03809 L 3.4281383,126.76338 13.277496,105.84533 C 31.145453,67.897397 61.359156,44.325919 101.38369,37.10854 117.63808,34.177486 239.78977,32.632158 455.22293,32.632158 l 329.01516,0 -59.07408,58.570541 -59.07404,58.570541 -274.89306,0 -274.89304,0 0,343.05602 0,343.05603 345.14783,0 345.14783,0 0,-174.72383 0,-174.72387 56.47873,-56.36248 56.47874,-56.36248 0,240.80007 c 0,267.66741 0.41167,263.29332 -27.8897,296.35706 -8.18662,9.56424 -24.55742,22.49142 -36.37955,28.72714 l -21.49476,11.33766 -366.06588,0.7318 C 266.39088,952.06882 96.954674,950.94084 91.202211,949.15967 z"
     id="path3022"
     inkscape:connector-curvature="0"
     transform="translate(-1.1718735e-5,0)" /><path
     style="fill:#191970;fill-opacity:1;stroke:#191970;stroke-width:4.18360996000000007;stroke-opacity:1"
     d="M 108.10817,944.04395 C 75.734839,941.04581 58.854332,932.84208 35.650841,908.83055 8.8345853,881.08041 9.3136249,888.04905 6.9590131,491.44738 L 4.8321306,133.20352 18.647555,107.28314 C 34.722527,77.123399 57.456755,56.080007 84.787012,46.062733 102.25558,39.660036 137.24978,38.778076 438.8602,37.139019 l 334.6888,-1.818817 -54.29706,54.686804 -54.29711,54.686804 -276.2081,1.07545 -276.20811,1.07546 -1.07008,346.19373 -1.07007,346.19373 349.3556,0 349.35562,0 0,-174.72852 0,-174.72847 52.29512,-52.16958 52.29513,-52.16956 -0.1025,232.12759 c -0.0636,144.31233 -1.73599,239.2179 -4.42082,250.86993 -5.79342,25.14316 -20.77422,43.70851 -51.06962,63.2894 l -25.19286,16.28307 -347.63695,-0.61353 c -191.2003,-0.33761 -360.92636,-1.8443 -377.16902,-3.34856 l 0,0 z"
     id="path3001"
     inkscape:connector-curvature="0"
     transform="translate(-1.1718735e-5,0)" /><path
     style="fill:#4169e1;fill-opacity:1;stroke:#000000;stroke-width:4.18360996;stroke-opacity:1"
     d="M 432.66427,671.56777 C 411.48754,661.96208 249.83844,503.05255 229.52416,471.87041 c -9.90901,-15.2102 -11.68351,-22.1675 -11.34514,-44.48086 1.23443,-81.40287 83.7469,-128.07392 147.86819,-83.63783 9.13215,6.32858 36.92648,30.84329 61.76517,54.47712 l 45.16125,42.97061 118.91061,-119.31437 C 752.44955,160.77456 826.99337,91.23774 850.09313,81.019615 c 14.5557,-6.43868 23.48909,-7.683102 39.70898,-5.53146 49.3761,6.549975 82.42666,39.585285 88.97271,88.931685 4.33882,32.70768 -5.95767,50.12336 -70.23432,118.79585 -94.70559,101.18241 -381.00303,382.15268 -397.25799,389.86617 -20.52761,9.74095 -55.28085,9.07166 -78.61824,-1.51409 l 0,0 z"
     id="path3003"
     inkscape:connector-curvature="0"
     transform="translate(-1.1718735e-5,0)" /><path
     style="fill:#191970;fill-opacity:1;stroke:#191970;stroke-width:16.73443985000000112;stroke-miterlimit:4;stroke-opacity:1;stroke-dasharray:none"
     d="M 444.20419,670.37098 C 435.63846,667.18884 415.8709,653.24901 400.27628,639.39365 357.34706,601.25217 241.89639,482.52949 232.08446,466.43502 c -20.50235,-33.6299 -4.36802,-92.68705 32.37751,-118.51278 22.63638,-15.90944 62.50363,-19.92021 84.84234,-8.53541 12.08026,6.15664 50.82564,39.3911 111.72875,95.83706 l 13.80564,12.7953 67.77475,-69.85987 C 645.33733,272.27512 809.13344,115.16613 836.26428,96.497053 c 20.94144,-14.410074 26.94847,-16.522482 45.71397,-16.075605 49.74777,1.184681 90.68234,42.093892 91.86756,91.810612 0.44656,18.73075 -1.71871,24.99161 -15.99507,46.24952 -16.65667,24.80226 -384.30986,396.03038 -430.33969,434.52411 -21.12365,17.66525 -27.14995,20.51203 -46.01971,21.73908 -11.9422,0.77657 -28.72142,-1.19161 -37.28715,-4.37379 l 0,0 z"
     id="path3004"
     inkscape:connector-curvature="0"
     transform="translate(-1.1718735e-5,0)" /></svg>