<?xml version="1.0" encoding="UTF-8" standalone="no"?>
<!-- Generator: Adobe Illustrator 16.0.0, SVG Export Plug-In . SVG Version: 6.00 Build 0)  -->

<svg
   xmlns:dc="http://purl.org/dc/elements/1.1/"
   xmlns:cc="http://creativecommons.org/ns#"
   xmlns:rdf="http://www.w3.org/1999/02/22-rdf-syntax-ns#"
   xmlns:svg="http://www.w3.org/2000/svg"
   xmlns="http://www.w3.org/2000/svg"
   xmlns:sodipodi="http://sodipodi.sourceforge.net/DTD/sodipodi-0.dtd"
   xmlns:inkscape="http://www.inkscape.org/namespaces/inkscape"
   version="1.1"
   id="Capa_1"
   x="0px"
   y="0px"
   width="512px"
   height="512px"
   viewBox="0 0 31.709 31.709"
   style="enable-background:new 0 0 31.709 31.709;"
   xml:space="preserve"
   inkscape:version="0.48.4 r9939"
   sodipodi:docname="tool_replace.svg"><metadata
     id="metadata55"><rdf:RDF><cc:Work
         rdf:about=""><dc:format>image/svg+xml</dc:format><dc:type
           rdf:resource="http://purl.org/dc/dcmitype/StillImage" /></cc:Work></rdf:RDF></metadata><defs
     id="defs53" /><sodipodi:namedview
     pagecolor="#ffffff"
     bordercolor="#666666"
     borderopacity="1"
     objecttolerance="10"
     gridtolerance="10"
     guidetolerance="10"
     inkscape:pageopacity="0"
     inkscape:pageshadow="2"
     inkscape:window-width="752"
     inkscape:window-height="547"
     id="namedview51"
     showgrid="false"
     inkscape:zoom="0.4609375"
     inkscape:cx="256"
     inkscape:cy="256"
     inkscape:window-x="934"
     inkscape:window-y="5"
     inkscape:window-maximized="0"
     inkscape:current-layer="Capa_1" /><g
     id="g3"
     style="fill:#ff7800;fill-opacity:1;stroke-width:0.24772656000000001;stroke-miterlimit:4;stroke-dasharray:none;stroke:#dcdcdc;stroke-opacity:1"><g
       id="g5"
       style="fill:#ff7800;fill-opacity:1;stroke-width:0.24772656000000001;stroke-miterlimit:4;stroke-dasharray:none;stroke:#dcdcdc;stroke-opacity:1"><path
         d="M10.595,25.719H4.696c-1.127,0-2.06-0.886-2.06-2.013V5.42c0-1.127,0.933-2.006,2.06-2.006h14.277    c1.127,0,2.047,0.879,2.047,2.006v15.323l2.637-3.135V3.462c0-1.482-1.172-2.684-2.652-2.684H2.559C1.136,0.778,0,1.932,0,3.354    v22.382c0,1.482,1.185,2.688,2.669,2.688h10.358l-1.224-1.063C11.267,26.896,10.864,26.327,10.595,25.719z"
         fill="#006DF0"
         id="path7"
         style="fill:#ff7800;fill-opacity:1;stroke-width:0.24772656000000001;stroke-miterlimit:4;stroke-dasharray:none;stroke:#dcdcdc;stroke-opacity:1" /><path
         d="M17.875,6.794H6.034c-0.728,0-1.314,0.591-1.314,1.318c0,0.726,0.587,1.317,1.314,1.317h11.84    c0.728,0,1.312-0.591,1.312-1.317C19.188,7.386,18.602,6.794,17.875,6.794z"
         fill="#006DF0"
         id="path9"
         style="fill:#ff7800;fill-opacity:1;stroke-width:0.24772656000000001;stroke-miterlimit:4;stroke-dasharray:none;stroke:#dcdcdc;stroke-opacity:1" /><path
         d="M17.875,11.187H6.034c-0.728,0-1.314,0.59-1.314,1.318c0,0.724,0.587,1.318,1.314,1.318h11.84    c0.728,0,1.312-0.594,1.312-1.318C19.188,11.777,18.602,11.187,17.875,11.187z"
         fill="#006DF0"
         id="path11"
         style="fill:#ff7800;fill-opacity:1;stroke-width:0.24772656000000001;stroke-miterlimit:4;stroke-dasharray:none;stroke:#dcdcdc;stroke-opacity:1" /><path
         d="M17.875,15.581H6.034c-0.728,0-1.314,0.558-1.314,1.286c0,0.725,0.587,1.282,1.314,1.282h11.84    c0.728,0,1.312-0.56,1.312-1.282C19.188,16.139,18.602,15.581,17.875,15.581z"
         fill="#006DF0"
         id="path13"
         style="fill:#ff7800;fill-opacity:1;stroke-width:0.24772656000000001;stroke-miterlimit:4;stroke-dasharray:none;stroke:#dcdcdc;stroke-opacity:1" /><path
         d="M4.719,21.056c0,0.727,0.587,1.283,1.314,1.283h4.418c0.185-0.473,0.469-1.022,0.857-1.479    c0.408-0.473,0.889-0.82,1.412-1.092H6.034C5.306,19.771,4.719,20.331,4.719,21.056z"
         fill="#006DF0"
         id="path15"
         style="fill:#ff7800;fill-opacity:1;stroke-width:0.24772656000000001;stroke-miterlimit:4;stroke-dasharray:none;stroke:#dcdcdc;stroke-opacity:1" /><path
         d="M17.875,19.771h-0.988c0.324,0.137,0.633,0.366,0.916,0.611l1.312,1.123c0.05-0.135,0.076-0.28,0.076-0.437    C19.188,20.346,18.602,19.771,17.875,19.771z"
         fill="#006DF0"
         id="path17"
         style="fill:#ff7800;fill-opacity:1;stroke-width:0.24772656000000001;stroke-miterlimit:4;stroke-dasharray:none;stroke:#dcdcdc;stroke-opacity:1" /><path
         d="M30.898,16.249c-0.965-0.828-2.42-0.71-3.246,0.26l-7.564,8.867l-3.781-3.248c-0.968-0.826-2.421-0.717-3.248,0.248    c-0.829,0.967-0.717,2.418,0.248,3.246l5.533,4.752c0.422,0.358,0.951,0.557,1.5,0.557c0.062,0,0.119-0.002,0.182-0.008    c0.607-0.047,1.176-0.336,1.572-0.801l9.066-10.627C31.982,18.528,31.869,17.077,30.898,16.249z"
         fill="#006DF0"
         id="path19"
         style="fill:#ff7800;fill-opacity:1;stroke-width:0.24772656000000001;stroke-miterlimit:4;stroke-dasharray:none;stroke:#dcdcdc;stroke-opacity:1" /></g></g><g
     id="g21" /><g
     id="g23" /><g
     id="g25" /><g
     id="g27" /><g
     id="g29" /><g
     id="g31" /><g
     id="g33" /><g
     id="g35" /><g
     id="g37" /><g
     id="g39" /><g
     id="g41" /><g
     id="g43" /><g
     id="g45" /><g
     id="g47" /><g
     id="g49" /></svg>