<?xml version="1.0" encoding="UTF-8" standalone="no"?>
<!-- Generator: Adobe Illustrator 19.0.0, SVG Export Plug-In . SVG Version: 6.00 Build 0)  -->

<svg
   xmlns:dc="http://purl.org/dc/elements/1.1/"
   xmlns:cc="http://creativecommons.org/ns#"
   xmlns:rdf="http://www.w3.org/1999/02/22-rdf-syntax-ns#"
   xmlns:svg="http://www.w3.org/2000/svg"
   xmlns="http://www.w3.org/2000/svg"
   xmlns:sodipodi="http://sodipodi.sourceforge.net/DTD/sodipodi-0.dtd"
   xmlns:inkscape="http://www.inkscape.org/namespaces/inkscape"
   version="1.1"
   id="Layer_1"
   x="0px"
   y="0px"
   viewBox="0 0 455 455"
   style="enable-background:new 0 0 455 455;"
   xml:space="preserve"
   width="512px"
   height="512px"
   inkscape:version="0.48.4 r9939"
   sodipodi:docname="tool_wptmovehere.svg"><metadata
     id="metadata53"><rdf:RDF><cc:Work
         rdf:about=""><dc:format>image/svg+xml</dc:format><dc:type
           rdf:resource="http://purl.org/dc/dcmitype/StillImage" /></cc:Work></rdf:RDF></metadata><defs
     id="defs51" /><sodipodi:namedview
     pagecolor="#ffffff"
     bordercolor="#666666"
     borderopacity="1"
     objecttolerance="10"
     gridtolerance="10"
     guidetolerance="10"
     inkscape:pageopacity="0"
     inkscape:pageshadow="2"
     inkscape:window-width="752"
     inkscape:window-height="480"
     id="namedview49"
     showgrid="false"
     inkscape:zoom="0.4609375"
     inkscape:cx="256"
     inkscape:cy="256"
     inkscape:window-x="0"
     inkscape:window-y="0"
     inkscape:window-maximized="0"
     inkscape:current-layer="Layer_1" /><g
     id="g3"
     style="fill:#ff4500;fill-opacity:1;stroke:#ff4500;stroke-opacity:1"><path
       d="M367.702,351.4c-16.542,0-30,13.458-30,30c0,16.542,13.458,30,30,30c16.542,0,30-13.458,30-30   C397.702,364.858,384.244,351.4,367.702,351.4z"
       fill="#006DF0"
       id="path5"
       style="fill:#ff4500;fill-opacity:1;stroke:#ff4500;stroke-opacity:1" /><path
       d="M367.702,43.6c-48.136,0-87.298,39.162-87.298,87.298c0,20.397,7.031,39.181,18.798,54.058l68.5,86.124l68.5-86.124   C447.968,170.078,455,151.294,455,130.898C455,82.761,415.838,43.6,367.702,43.6z M367.702,150.898c-11.028,0-20-8.972-20-20   s8.972-20,20-20s20,8.972,20,20S378.73,150.898,367.702,150.898z"
       fill="#006DF0"
       id="path7"
       style="fill:#ff4500;fill-opacity:1;stroke:#ff4500;stroke-opacity:1" /><rect
       x="142.399"
       y="366.4"
       width="40"
       height="30"
       fill="#006DF0"
       id="rect9"
       style="fill:#ff4500;fill-opacity:1;stroke:#ff4500;stroke-opacity:1" /><rect
       x="207.5"
       y="366.4"
       width="40"
       height="30"
       fill="#006DF0"
       id="rect11"
       style="fill:#ff4500;fill-opacity:1;stroke:#ff4500;stroke-opacity:1" /><rect
       x="272.601"
       y="366.4"
       width="40"
       height="30"
       fill="#006DF0"
       id="rect13"
       style="fill:#ff4500;fill-opacity:1;stroke:#ff4500;stroke-opacity:1" /><path
       d="M155.799,184.956c11.766-14.877,18.798-33.661,18.798-54.058c0-48.136-39.162-87.298-87.298-87.298   C39.162,43.6,0,82.761,0,130.898c0,20.397,7.032,39.181,18.798,54.058l68.5,86.124L155.799,184.956z M67.298,130.898   c0-11.028,8.972-20,20-20c11.028,0,20,8.972,20,20s-8.972,20-20,20C76.27,150.898,67.298,141.926,67.298,130.898z"
       fill="#006DF0"
       id="path15"
       style="fill:#ff4500;fill-opacity:1;stroke:#ff4500;stroke-opacity:1" /><path
       d="M87.298,351.4c-16.542,0-30,13.458-30,30c0,16.542,13.458,30,30,30c16.542,0,30-13.458,30-30   C117.298,364.858,103.84,351.4,87.298,351.4z"
       fill="#006DF0"
       id="path17"
       style="fill:#ff4500;fill-opacity:1;stroke:#ff4500;stroke-opacity:1" /></g><g
     id="g19" /><g
     id="g21" /><g
     id="g23" /><g
     id="g25" /><g
     id="g27" /><g
     id="g29" /><g
     id="g31" /><g
     id="g33" /><g
     id="g35" /><g
     id="g37" /><g
     id="g39" /><g
     id="g41" /><g
     id="g43" /><g
     id="g45" /><g
     id="g47" /></svg>