<?xml version="1.0" encoding="iso-8859-1"?>
<!-- Generator: Adobe Illustrator 16.0.0, SVG Export Plug-In . SVG Version: 6.00 Build 0)  -->
<!DOCTYPE svg PUBLIC "-//W3C//DTD SVG 1.1//EN" "http://www.w3.org/Graphics/SVG/1.1/DTD/svg11.dtd">
<svg xmlns="http://www.w3.org/2000/svg" xmlns:xlink="http://www.w3.org/1999/xlink" version="1.1" id="Capa_1" x="0px" y="0px" width="512px" height="512px" viewBox="0 0 748 748" style="enable-background:new 0 0 748 748;" xml:space="preserve">
<g>
	<g>
		<polygon points="680,646 680,0 170,0 170,68 612,68 612,646   " fill="#9872ba"/>
		<path d="M68,109.14v631.72c0,3.943,3.128,7.14,7.004,7.14h495.958c3.91,0,7.038-3.162,7.038-7.14V109.14    c0-3.944-3.128-7.14-7.004-7.14H75.004C71.128,102,68,105.162,68,109.14z M136,204h374v34H136V204z M136,306h374v34H136V306z     M136,408h374v34H136V408z M136,510h374v34H136V510z M136,612h238v34H136V612z" fill="#9872ba"/>
	</g>
</g>
<g>
</g>
<g>
</g>
<g>
</g>
<g>
</g>
<g>
</g>
<g>
</g>
<g>
</g>
<g>
</g>
<g>
</g>
<g>
</g>
<g>
</g>
<g>
</g>
<g>
</g>
<g>
</g>
<g>
</g>
</svg>
