<?xml version="1.0" encoding="UTF-8" standalone="no"?>
<!-- Generator: Adobe Illustrator 16.0.0, SVG Export Plug-In . SVG Version: 6.00 Build 0)  -->

<svg
   xmlns:dc="http://purl.org/dc/elements/1.1/"
   xmlns:cc="http://creativecommons.org/ns#"
   xmlns:rdf="http://www.w3.org/1999/02/22-rdf-syntax-ns#"
   xmlns:svg="http://www.w3.org/2000/svg"
   xmlns="http://www.w3.org/2000/svg"
   xmlns:sodipodi="http://sodipodi.sourceforge.net/DTD/sodipodi-0.dtd"
   xmlns:inkscape="http://www.inkscape.org/namespaces/inkscape"
   version="1.1"
   id="Capa_1"
   x="0px"
   y="0px"
   width="45.795px"
   height="45.794px"
   viewBox="0 0 45.795 45.794"
   style="enable-background:new 0 0 45.795 45.794;"
   xml:space="preserve"
   inkscape:version="0.48.4 r9939"
   sodipodi:docname="tool_print.svg"><metadata
     id="metadata45"><rdf:RDF><cc:Work
         rdf:about=""><dc:format>image/svg+xml</dc:format><dc:type
           rdf:resource="http://purl.org/dc/dcmitype/StillImage" /></cc:Work></rdf:RDF></metadata><defs
     id="defs43" /><sodipodi:namedview
     pagecolor="#ffffff"
     bordercolor="#666666"
     borderopacity="1"
     objecttolerance="10"
     gridtolerance="10"
     guidetolerance="10"
     inkscape:pageopacity="0"
     inkscape:pageshadow="2"
     inkscape:window-width="752"
     inkscape:window-height="480"
     id="namedview41"
     showgrid="false"
     inkscape:zoom="5.1535137"
     inkscape:cx="22.897499"
     inkscape:cy="22.896999"
     inkscape:window-x="0"
     inkscape:window-y="0"
     inkscape:window-maximized="0"
     inkscape:current-layer="Capa_1" /><g
     id="g3"
     style="fill:#008000;fill-opacity:1;stroke:#008000;stroke-opacity:1"><g
       id="g5"
       style="fill:#008000;fill-opacity:1;stroke:#008000;stroke-opacity:1"><path
         d="M42.158,9.627h-6.252v1.194c0,3.077-2.495,5.57-5.571,5.57H14.678c-3.077,0-5.571-2.493-5.571-5.57V9.627H3.615    C1.637,9.627,0,11.286,0,13.265v14.213c0,2.245,1.852,4.006,4.097,4.006h5.01v0.061v7.117c0,3.072,2.438,5.571,5.511,5.571h16.681    c3.072,0,5.52-2.499,5.52-5.571v-7.117v-0.061h5.342c1.979,0,3.635-1.546,3.635-3.523V13.265    C45.793,11.286,44.139,9.627,42.158,9.627z M32.913,38.604c0,0.881-0.715,1.596-1.597,1.596H14.605    c-0.882,0-1.597-0.715-1.597-1.596V25.923c0-0.881,0.715-1.596,1.597-1.596h16.711c0.882,0,1.597,0.715,1.597,1.596V38.604z"
         id="path7"
         style="fill:#008000;fill-opacity:1;stroke:#008000;stroke-opacity:1" /><path
         d="M14.605,12.49h15.67c0.883,0,1.598-0.715,1.598-1.597V3.159c0-0.882-0.715-1.597-1.598-1.597h-15.67    c-0.882,0-1.597,0.715-1.597,1.597v7.734C13.009,11.775,13.724,12.49,14.605,12.49z"
         id="path9"
         style="fill:#008000;fill-opacity:1;stroke:#008000;stroke-opacity:1" /></g></g><g
     id="g11" /><g
     id="g13" /><g
     id="g15" /><g
     id="g17" /><g
     id="g19" /><g
     id="g21" /><g
     id="g23" /><g
     id="g25" /><g
     id="g27" /><g
     id="g29" /><g
     id="g31" /><g
     id="g33" /><g
     id="g35" /><g
     id="g37" /><g
     id="g39" /></svg>