<?xml version="1.0" encoding="UTF-8" standalone="no"?>
<!-- Generator: Adobe Illustrator 18.0.0, SVG Export Plug-In . SVG Version: 6.00 Build 0)  -->

<svg
   xmlns:dc="http://purl.org/dc/elements/1.1/"
   xmlns:cc="http://creativecommons.org/ns#"
   xmlns:rdf="http://www.w3.org/1999/02/22-rdf-syntax-ns#"
   xmlns:svg="http://www.w3.org/2000/svg"
   xmlns="http://www.w3.org/2000/svg"
   xmlns:sodipodi="http://sodipodi.sourceforge.net/DTD/sodipodi-0.dtd"
   xmlns:inkscape="http://www.inkscape.org/namespaces/inkscape"
   version="1.1"
   id="Capa_1"
   x="0px"
   y="0px"
   viewBox="0 0 297 297"
   style="enable-background:new 0 0 297 297;"
   xml:space="preserve"
   width="512px"
   height="512px"
   inkscape:version="0.48.4 r9939"
   sodipodi:docname="tool_unselectbymap.svg"><metadata
     id="metadata47"><rdf:RDF><cc:Work
         rdf:about=""><dc:format>image/svg+xml</dc:format><dc:type
           rdf:resource="http://purl.org/dc/dcmitype/StillImage" /></cc:Work></rdf:RDF></metadata><defs
     id="defs45" /><sodipodi:namedview
     pagecolor="#ffffff"
     bordercolor="#666666"
     borderopacity="1"
     objecttolerance="10"
     gridtolerance="10"
     guidetolerance="10"
     inkscape:pageopacity="0"
     inkscape:pageshadow="2"
     inkscape:window-width="1882"
     inkscape:window-height="768"
     id="namedview43"
     showgrid="false"
     inkscape:zoom="0.4609375"
     inkscape:cx="260.33898"
     inkscape:cy="256"
     inkscape:window-x="0"
     inkscape:window-y="0"
     inkscape:window-maximized="0"
     inkscape:current-layer="Capa_1" /><g
     id="g3"
     style="fill:#191970;stroke:#191970"><path
       d="M151.69,72.861L88.679,43.699c-0.149-0.069-0.289-0.149-0.431-0.227H40.807c-4.922,0-9.117,3.57-9.904,8.429l-8.65,53.406   L151.69,72.861z"
       fill="#D80027"
       id="path5"
       style="fill:#191970;stroke:#191970" /><path
       d="M254.885,105.144l15.854-24.582l-4.642-28.66c-0.787-4.858-4.982-8.429-9.904-8.429H121.632L254.885,105.144z"
       fill="#D80027"
       id="path7"
       style="fill:#191970;stroke:#191970" /><path
       d="M296.871,241.891l-22.777-140.615l-98.192,152.252h111.064c2.941,0,5.735-1.29,7.641-3.53   C296.515,247.758,297.341,244.793,296.871,241.891z"
       fill="#D80027"
       id="path9"
       style="fill:#191970;stroke:#191970" /><path
       d="M247.197,117.065l-75.212-34.81L20.024,120.348c-0.072,0.017-0.143,0.024-0.215,0.04L0.129,241.891   c-0.47,2.902,0.356,5.867,2.264,8.107c1.905,2.24,4.699,3.53,7.641,3.53h149.153L247.197,117.065z M148.573,217.918   c-0.025,0-0.05,0-0.075,0c-1.067,0-2.142-0.242-3.142-0.742l-36.629-18.328l-36.618,18.32c-2.724,1.362-6.016,0.815-8.149-1.355   c-2.135-2.171-2.629-5.47-1.222-8.17l39.755-76.293c1.211-2.322,3.611-3.778,6.229-3.778c2.617,0,5.018,1.455,6.229,3.776   l39.544,75.854c0.665,1.074,1.049,2.339,1.049,3.694C155.543,214.757,152.428,217.891,148.573,217.918z"
       fill="#D80027"
       id="path11"
       style="fill:#191970;stroke:#191970" /></g><g
     id="g13" /><g
     id="g15" /><g
     id="g17" /><g
     id="g19" /><g
     id="g21" /><g
     id="g23" /><g
     id="g25" /><g
     id="g27" /><g
     id="g29" /><g
     id="g31" /><g
     id="g33" /><g
     id="g35" /><g
     id="g37" /><g
     id="g39" /><g
     id="g41" /></svg>