<?xml version="1.0" encoding="iso-8859-1"?>
<!-- Generator: Adobe Illustrator 18.0.0, SVG Export Plug-In . SVG Version: 6.00 Build 0)  -->
<!DOCTYPE svg PUBLIC "-//W3C//DTD SVG 1.1//EN" "http://www.w3.org/Graphics/SVG/1.1/DTD/svg11.dtd">
<svg version="1.1" id="Capa_1" xmlns="http://www.w3.org/2000/svg" xmlns:xlink="http://www.w3.org/1999/xlink" x="0px" y="0px"
	 viewBox="0 0 409.771 409.771" style="enable-background:new 0 0 409.771 409.771;" xml:space="preserve">
<g>
	<path d="M218.191,120.87c-8.519-2.341-17.483-3.599-26.735-3.599c-55.691,0-101,45.308-101,101c0,55.691,45.309,101,101,101
		s101-45.309,101-101c0-9.227-1.251-18.167-3.579-26.665l-62.02,62.02c-9.444,9.444-22,14.646-35.356,14.646
		c-13.356,0-25.912-5.201-35.355-14.645c-19.495-19.495-19.495-51.216,0-70.711L218.191,120.87z"/>
	<path d="M345.99,134.492l-25.948,25.948c7.972,17.656,12.413,37.234,12.413,57.832c0,77.748-63.252,141-141,141
		c-77.747,0-141-63.252-141-141s63.252-141,141-141c20.621,0,40.222,4.451,57.894,12.44l25.93-25.93
		c-3.603-17.455-3.561-16.921-3.836-19.623C246.69,32.777,219.558,26.771,191.5,26.771c-0.003,0,0.003,0,0,0
		C85.657,26.771,0,112.42,0,218.271c0,105.839,85.649,191.5,191.5,191.5c51.151,0,99.241-19.92,135.411-56.09
		c58.133-58.132,70.997-144.647,38.608-215.351C363.053,138.077,363.265,138.057,345.99,134.492z"/>
	<path d="M409.479,66.087c-0.731-2.441-2.743-4.285-5.239-4.8l-46.216-9.54l-9.539-46.216c-0.515-2.496-2.359-4.508-4.801-5.239
		C343.029,0.096,342.36,0,341.696,0c-1.812,0-3.583,0.711-4.902,2.03l-33.521,33.521c-1.65,1.65-2.359,4.019-1.887,6.303
		l6.544,31.703L177.358,204.128c-7.811,7.811-7.811,20.474,0,28.284c7.81,7.811,20.473,7.812,28.284,0l130.572-130.571l31.703,6.543
		c0.466,0.096,0.936,0.144,1.402,0.144c1.819,0,3.587-0.717,4.901-2.03l33.521-33.521C409.543,71.175,410.21,68.529,409.479,66.087z
		"/>
</g>
<g>
</g>
<g>
</g>
<g>
</g>
<g>
</g>
<g>
</g>
<g>
</g>
<g>
</g>
<g>
</g>
<g>
</g>
<g>
</g>
<g>
</g>
<g>
</g>
<g>
</g>
<g>
</g>
<g>
</g>
</svg>
