<?xml version="1.0" encoding="UTF-8" standalone="no"?>
<!-- Generator: Adobe Illustrator 19.0.0, SVG Export Plug-In . SVG Version: 6.00 Build 0)  -->

<svg
   xmlns:dc="http://purl.org/dc/elements/1.1/"
   xmlns:cc="http://creativecommons.org/ns#"
   xmlns:rdf="http://www.w3.org/1999/02/22-rdf-syntax-ns#"
   xmlns:svg="http://www.w3.org/2000/svg"
   xmlns="http://www.w3.org/2000/svg"
   xmlns:sodipodi="http://sodipodi.sourceforge.net/DTD/sodipodi-0.dtd"
   xmlns:inkscape="http://www.inkscape.org/namespaces/inkscape"
   version="1.1"
   id="Capa_1"
   x="0px"
   y="0px"
   viewBox="0 0 502.664 502.664"
   style="enable-background:new 0 0 502.664 502.664;"
   xml:space="preserve"
   inkscape:version="0.48.4 r9939"
   width="100%"
   height="100%"
   sodipodi:docname="tool_ctx_web.svg"
   inkscape:export-filename="/home/laurent/Bureau/flaticon/007-my-icons-collection/svg/icons/tool_ctx_web.png"
   inkscape:export-xdpi="198"
   inkscape:export-ydpi="198"><metadata
     id="metadata83"><rdf:RDF><cc:Work
         rdf:about=""><dc:format>image/svg+xml</dc:format><dc:type
           rdf:resource="http://purl.org/dc/dcmitype/StillImage" /><dc:title /></cc:Work></rdf:RDF></metadata><defs
     id="defs81" /><sodipodi:namedview
     pagecolor="#ffffff"
     bordercolor="#666666"
     borderopacity="1"
     objecttolerance="10"
     gridtolerance="10"
     guidetolerance="10"
     inkscape:pageopacity="0"
     inkscape:pageshadow="2"
     inkscape:window-width="1661"
     inkscape:window-height="665"
     id="namedview79"
     showgrid="false"
     inkscape:zoom="0.46949851"
     inkscape:cx="-129.92587"
     inkscape:cy="251.332"
     inkscape:window-x="0"
     inkscape:window-y="0"
     inkscape:window-maximized="0"
     inkscape:current-layer="Capa_1" /><g
     id="g19" /><g
     id="g21" /><g
     id="g23" /><g
     id="g25" /><g
     id="g27" /><g
     id="g29" /><g
     id="g31" /><g
     id="g33" /><g
     id="g35" /><g
     id="g37" /><g
     id="g39" /><g
     id="g41" /><g
     id="g43" /><g
     id="g45" /><g
     id="g47" /><g
     id="g49" /><g
     id="g51" /><g
     id="g53" /><g
     id="g55" /><g
     id="g57" /><g
     id="g59" /><g
     id="g61" /><g
     id="g63" /><g
     id="g65" /><g
     id="g67" /><g
     id="g69" /><g
     id="g71" /><g
     id="g73" /><g
     id="g75" /><g
     id="g77" /><path
     style="fill:#ff1493;fill-opacity:1;stroke:#000000;stroke-width:2.12993217;stroke-opacity:1"
     d=""
     id="path3074"
     inkscape:connector-curvature="0" /><path
     style="fill:#32cd32;fill-opacity:1;stroke:#556b2f;stroke-width:11.99999997;stroke-opacity:1;stroke-miterlimit:4;stroke-dasharray:none"
     d="M 101.47833,313.60437 C 68.173541,216.08988 18.206385,64.471767 18.206385,60.927637 c 0,-2.176067 14.055598,-3.956482 31.23466,-3.956482 l 31.234657,0 9.990976,34.517918 C 110.98575,161.6896 146.47917,261.07709 151.23022,261.07709 c 2.69612,0 16.83397,-41.19639 31.41744,-91.54751 14.58348,-50.35114 27.94194,-96.274982 29.68547,-102.052978 2.51451,-8.333013 10.22741,-10.505447 37.29792,-10.505447 33.12685,0 34.29255,0.572256 39.74286,19.510122 3.08826,10.73056 16.45502,58.005123 29.70391,105.054533 13.2489,47.04944 26.13007,85.54443 28.62484,85.54443 3.5086,0 42.60007,-115.6515 67.46823,-199.603638 2.46845,-8.333244 10.1407,-10.505447 37.10512,-10.505447 l 33.99321,0 -25.07794,70.536605 c -13.79285,38.79514 -36.53354,104.97949 -50.53487,147.07636 l -25.45697,76.53974 -37.74868,0 c -25.99928,0 -37.73415,-2.33562 -37.702,-7.50391 0.0559,-8.98053 -51.47413,-186.29419 -55.38816,-190.58951 -7.35991,-8.07688 -21.13485,26.12864 -43.50551,108.0316 l -24.59914,90.06182 -35.98167,0 -35.98166,0 -12.81429,-37.51949 0,0 z"
     id="path3076"
     inkscape:connector-curvature="0" /></svg>