<?xml version="1.0" encoding="iso-8859-1"?>
<!-- Generator: Adobe Illustrator 18.0.0, SVG Export Plug-In . SVG Version: 6.00 Build 0)  -->
<!DOCTYPE svg PUBLIC "-//W3C//DTD SVG 1.1//EN" "http://www.w3.org/Graphics/SVG/1.1/DTD/svg11.dtd">
<svg xmlns="http://www.w3.org/2000/svg" xmlns:xlink="http://www.w3.org/1999/xlink" version="1.1" id="Capa_1" x="0px" y="0px" viewBox="0 0 297 297" style="enable-background:new 0 0 297 297;" xml:space="preserve" width="512px" height="512px">
<g>
	<path d="M166.189,274.107v-13.513h-9.229c-13.57,0-24.611-11.041-24.611-24.611v-33.841c0-13.571,11.041-24.612,24.611-24.612   h9.229v-9.23c0-13.57,11.041-24.611,24.612-24.611h33.841c7.502,0,14.226,3.377,18.743,8.687   c4.016-13.607,6.382-27.566,6.382-41.579C249.768,49.703,200.084,0,139.015,0C77.944,0,28.261,49.703,28.261,110.797   c0,91.026,99.73,179.905,103.976,183.645c1.937,1.705,4.357,2.559,6.778,2.559c2.42,0,4.841-0.853,6.777-2.559   C146.948,293.423,154.81,286.081,166.189,274.107z M108.249,110.797c0-17.15,13.802-31.104,30.766-31.104   c16.963,0,30.765,13.953,30.765,31.104c0,17.151-13.802,31.104-30.765,31.104C122.051,141.901,108.249,127.948,108.249,110.797z" fill="#56ab1a"/>
	<path d="M224.643,158.046h-33.841c-5.663,0-10.255,4.592-10.255,10.255v23.586H156.96c-5.663,0-10.255,4.592-10.255,10.256v33.841   c0,5.663,4.592,10.255,10.255,10.255h23.587v23.586c0,5.663,4.592,10.255,10.255,10.255h33.841c5.663,0,10.255-4.592,10.255-10.255   v-23.586h23.586c5.664,0,10.256-4.592,10.256-10.255v-33.841c0-5.664-4.592-10.256-10.256-10.256h-23.586v-23.586   C234.898,162.638,230.306,158.046,224.643,158.046z" fill="#56ab1a"/>
</g>
<g>
</g>
<g>
</g>
<g>
</g>
<g>
</g>
<g>
</g>
<g>
</g>
<g>
</g>
<g>
</g>
<g>
</g>
<g>
</g>
<g>
</g>
<g>
</g>
<g>
</g>
<g>
</g>
<g>
</g>
</svg>
