<?xml version="1.0" encoding="UTF-8" standalone="no"?>
<!-- Generator: Adobe Illustrator 18.1.1, SVG Export Plug-In . SVG Version: 6.00 Build 0)  -->

<svg
   xmlns:dc="http://purl.org/dc/elements/1.1/"
   xmlns:cc="http://creativecommons.org/ns#"
   xmlns:rdf="http://www.w3.org/1999/02/22-rdf-syntax-ns#"
   xmlns:svg="http://www.w3.org/2000/svg"
   xmlns="http://www.w3.org/2000/svg"
   xmlns:sodipodi="http://sodipodi.sourceforge.net/DTD/sodipodi-0.dtd"
   xmlns:inkscape="http://www.inkscape.org/namespaces/inkscape"
   version="1.1"
   id="Capa_1"
   x="0px"
   y="0px"
   viewBox="0 0 26 26"
   style="enable-background:new 0 0 26 26;"
   xml:space="preserve"
   inkscape:version="0.48.4 r9939"
   width="100%"
   height="100%"
   sodipodi:docname="tool_import.svg"><metadata
     id="metadata45"><rdf:RDF><cc:Work
         rdf:about=""><dc:format>image/svg+xml</dc:format><dc:type
           rdf:resource="http://purl.org/dc/dcmitype/StillImage" /></cc:Work></rdf:RDF></metadata><defs
     id="defs43" /><sodipodi:namedview
     pagecolor="#ffffff"
     bordercolor="#666666"
     borderopacity="1"
     objecttolerance="10"
     gridtolerance="10"
     guidetolerance="10"
     inkscape:pageopacity="0"
     inkscape:pageshadow="2"
     inkscape:window-width="1378"
     inkscape:window-height="593"
     id="namedview41"
     showgrid="false"
     inkscape:zoom="9.0769231"
     inkscape:cx="13"
     inkscape:cy="13"
     inkscape:window-x="0"
     inkscape:window-y="0"
     inkscape:window-maximized="0"
     inkscape:current-layer="g7" /><path
     inkscape:connector-curvature="0"
     id="path5"
     d="M 20.25,19.547 V 23 c 0,0.552 -0.449,1 -1,1 h -14 c -0.551,0 -1,-0.448 -1,-1 V 3 c 0,-0.552 0.449,-1 1,-1 h 14 c 0.551,0 1,0.448 1,1 v 3.453 l 2,1.733 V 3 c 0,-1.656 -1.344,-3 -3,-3 h -14 c -1.656,0 -3,1.344 -3,3 v 20 c 0,1.656 1.344,3 3,3 h 14 c 1.656,0 3,-1.344 3,-3 v -5.187 l -2,1.734 z"
     style="fill:#9acd32;stroke:#9acd32" /><g
     id="g7"><path
       inkscape:connector-curvature="0"
       id="path9"
       d="m 15.75,19.5 c 0,0 1,0.281 1,-1 0,-0.29 0,-1.257 0,-2.5 h 6 c 0.552,0 1,-0.449 1,-1 v -4 c 0,-0.551 -0.448,-1 -1,-1 h -6 c 0,-1.196 0,-2.155 0,-2.531 0,-1.344 -1,-0.969 -1,-0.969 l -7.5,6.5 7.5,6.5 z"
       style="fill:#9acd32;stroke:#9acd32" /></g><g
     id="g11" /><g
     id="g13" /><g
     id="g15" /><g
     id="g17" /><g
     id="g19" /><g
     id="g21" /><g
     id="g23" /><g
     id="g25" /><g
     id="g27" /><g
     id="g29" /><g
     id="g31" /><g
     id="g33" /><g
     id="g35" /><g
     id="g37" /><g
     id="g39" /></svg>