<?xml version="1.0" encoding="UTF-8" standalone="no"?>
<!-- Generator: Adobe Illustrator 16.0.0, SVG Export Plug-In . SVG Version: 6.00 Build 0)  -->

<svg
   xmlns:dc="http://purl.org/dc/elements/1.1/"
   xmlns:cc="http://creativecommons.org/ns#"
   xmlns:rdf="http://www.w3.org/1999/02/22-rdf-syntax-ns#"
   xmlns:svg="http://www.w3.org/2000/svg"
   xmlns="http://www.w3.org/2000/svg"
   xmlns:sodipodi="http://sodipodi.sourceforge.net/DTD/sodipodi-0.dtd"
   xmlns:inkscape="http://www.inkscape.org/namespaces/inkscape"
   version="1.1"
   id="Capa_1"
   x="0px"
   y="0px"
   width="436.777px"
   height="436.776px"
   viewBox="0 0 436.777 436.776"
   style="enable-background:new 0 0 436.777 436.776;"
   xml:space="preserve"
   inkscape:version="0.48.4 r9939"
   sodipodi:docname="tool_ctx_copycoord.svg"><metadata
     id="metadata43"><rdf:RDF><cc:Work
         rdf:about=""><dc:format>image/svg+xml</dc:format><dc:type
           rdf:resource="http://purl.org/dc/dcmitype/StillImage" /></cc:Work></rdf:RDF></metadata><defs
     id="defs41" /><sodipodi:namedview
     pagecolor="#ffffff"
     bordercolor="#666666"
     borderopacity="1"
     objecttolerance="10"
     gridtolerance="10"
     guidetolerance="10"
     inkscape:pageopacity="0"
     inkscape:pageshadow="2"
     inkscape:window-width="923"
     inkscape:window-height="806"
     id="namedview39"
     showgrid="false"
     inkscape:zoom="0.54032273"
     inkscape:cx="-105.49201"
     inkscape:cy="218.388"
     inkscape:window-x="34"
     inkscape:window-y="85"
     inkscape:window-maximized="0"
     inkscape:current-layer="Capa_1" /><g
     id="g3"
     style="fill:#800080;stroke:#800080;stroke-width:5.39999999000000042;stroke-miterlimit:4;stroke-dasharray:none"><path
       d="M242.964,168.482c0-12.326-6.531-15.769-17.949-15.769h-8.702v31.881h7.067   C235.353,184.604,242.964,180.98,242.964,168.482z"
       id="path5"
       style="fill:#800080;stroke:#800080;stroke-width:5.39999999000000042;stroke-miterlimit:4;stroke-dasharray:none" /><path
       d="M122.63,362.936c0.392,0.334,0.679,0.641,1.109,0.975l85.221,67.568c10.146,7.766,25.867,6.885,35.114-1.922l69.969-63.715   c1.043-0.994,1.875-1.959,2.619-2.906h20.455c34.664,0,62.748-28.096,62.748-62.75V62.75c0-34.664-28.084-62.75-62.748-62.75H99.67   C65.006,0,36.912,28.095,36.912,62.75v237.426c0,34.664,28.094,62.75,62.758,62.75h22.96V362.936z M318.164,200.392   c-15.387-4.714-34.607-12.154-34.607-36.453c0-24.289,18.848-37.877,43.863-37.877c17.213,0,33.527,7.612,44.219,17.939   l-16.133,20.502c-9.602-7.076-19.756-12.336-28.094-12.336c-5.787,0-11.418,2.735-11.418,9.429c0,7.612,8.338,10.318,19.574,13.942   c16.494,5.269,34.262,12.508,34.262,36.806c0,25.188-19.221,38.594-46.053,38.594c-18.111,0-36.959-7.248-44.752-12.508   l10.508-25.542c8.34,5.25,24.107,11.045,34.455,11.045c6.703,0,12.498-2.182,12.498-10.51   C336.476,206.005,328.664,203.452,318.164,200.392z M185.149,128.243h44.217c28.457,0,45.68,13.234,45.68,38.241   c0,28.094-20.473,42.228-49.486,42.228h-9.247v40.066H185.14V128.243H185.149z M65.168,188.783   c0-46.942,29.357-62.721,55.463-62.721c15.587,0,31.891,4.169,45.661,23.925l-22.634,16.667   c-8.176-10.671-15.243-14.497-23.38-14.497c-14.143,0-23.026,11.771-23.026,34.808c0,23.753,7.076,38.948,24.47,38.948   c3.997,0,9.974-0.908,12.689-2.16v-37.151h31.355v52.03c-10.155,7.248-26.641,12.307-44.953,12.307   C86.904,250.939,65.168,230.648,65.168,188.783z"
       id="path7"
       style="fill:#800080;stroke:#800080;stroke-width:5.39999999000000042;stroke-miterlimit:4;stroke-dasharray:none" /></g><g
     id="g9" /><g
     id="g11" /><g
     id="g13" /><g
     id="g15" /><g
     id="g17" /><g
     id="g19" /><g
     id="g21" /><g
     id="g23" /><g
     id="g25" /><g
     id="g27" /><g
     id="g29" /><g
     id="g31" /><g
     id="g33" /><g
     id="g35" /><g
     id="g37" /></svg>