<?xml version="1.0" encoding="utf-8"?>
<!DOCTYPE svg PUBLIC "-//W3C//DTD SVG 1.1//EN" "http://www.w3.org/Graphics/SVG/1.1/DTD/svg11.dtd">
<svg xmlns="http://www.w3.org/2000/svg" xmlns:xlink="http://www.w3.org/1999/xlink" version="1.1" viewBox="0 0 512 512" enable-background="new 0 0 512 512" width="512px" height="512px">
  <g>
    <path d="m256,11c-135.1,0-245,109.9-245,245s109.9,245 245,245c135.1,0 245-109.9 245-245s-109.9-245-245-245zm189.9,170c-18.4-10.6-40.8-19.4-66.3-26.2-7.7-31.3-18.8-59-32.6-81.5 44.8,22.4 80.3,60.8 98.9,107.7zm-111.3-35.5c-18.4-2.8-37.9-4.6-58.2-5.3v-82.8c22.5,12.2 44.2,43.5 58.2,88.1zm-99-88.1v82.8c-20.3,0.7-39.8,2.5-58.2,5.3 14-44.6 35.7-75.9 58.2-88.1zm-70.6,15.9c-13.8,22.5-24.9,50.2-32.6,81.5-25.5,6.8-47.9,15.7-66.3,26.2 18.6-46.9 54.1-85.3 98.9-107.7zm-113.2,182.7c0-18.2 26-40.5 72.3-56.1-2.2,18-3.4,36.7-3.4,56.1 0,19.4 1.2,38.1 3.4,56.1-46.3-15.6-72.3-37.9-72.3-56.1zm14.3,75c18.4,10.6 40.8,19.4 66.3,26.2 7.7,31.3 18.8,59 32.6,81.5-44.8-22.4-80.3-60.8-98.9-107.7zm95.5-75c0-24 2-46.5 5.5-67.3 20.5-4 43.4-6.7 68.5-7.6v149.8c-25.1-1-48-3.7-68.5-7.6-3.5-20.8-5.5-43.3-5.5-67.3zm15.8,110.5c18.4,2.8 37.9,4.6 58.2,5.3v82.8c-22.5-12.2-44.2-43.5-58.2-88.1zm99,88.1v-82.8c20.3-0.7 39.8-2.5 58.2-5.3-14,44.6-35.7,75.9-58.2,88.1zm0-123.7v-149.8c25.1,1 48,3.7 68.5,7.6 3.5,20.7 5.5,43.3 5.5,67.3s-2,46.5-5.5,67.3c-20.5,3.9-43.4,6.6-68.5,7.6zm70.6,107.8c13.8-22.5 25-50.2 32.6-81.5 25.5-6.8 47.9-15.6 66.3-26.2-18.6,46.9-54.1,85.3-98.9,107.7zm40.8-126.6c2.2-18 3.4-36.7 3.4-56.1 0-19.4-1.2-38.1-3.4-56.1 46.4,15.6 72.3,37.9 72.3,56.1 0.1,18.2-25.9,40.5-72.3,56.1z" fill="#012845"/>
  </g>
</svg>
