<?xml version="1.0" encoding="UTF-8" standalone="no"?>
<!-- Generator: Adobe Illustrator 18.0.0, SVG Export Plug-In . SVG Version: 6.00 Build 0)  -->

<svg
   xmlns:dc="http://purl.org/dc/elements/1.1/"
   xmlns:cc="http://creativecommons.org/ns#"
   xmlns:rdf="http://www.w3.org/1999/02/22-rdf-syntax-ns#"
   xmlns:svg="http://www.w3.org/2000/svg"
   xmlns="http://www.w3.org/2000/svg"
   xmlns:sodipodi="http://sodipodi.sourceforge.net/DTD/sodipodi-0.dtd"
   xmlns:inkscape="http://www.inkscape.org/namespaces/inkscape"
   version="1.1"
   id="Capa_1"
   x="0px"
   y="0px"
   viewBox="0 0 512 512"
   style="enable-background:new 0 0 512 512;"
   xml:space="preserve"
   inkscape:version="0.48.4 r9939"
   width="100%"
   height="100%"
   sodipodi:docname="tool_wptmove.svg"><metadata
     id="metadata39"><rdf:RDF><cc:Work
         rdf:about=""><dc:format>image/svg+xml</dc:format><dc:type
           rdf:resource="http://purl.org/dc/dcmitype/StillImage" /></cc:Work></rdf:RDF></metadata><defs
     id="defs37" /><sodipodi:namedview
     pagecolor="#ffffff"
     bordercolor="#666666"
     borderopacity="1"
     objecttolerance="10"
     gridtolerance="10"
     guidetolerance="10"
     inkscape:pageopacity="0"
     inkscape:pageshadow="2"
     inkscape:window-width="1402"
     inkscape:window-height="728"
     id="namedview35"
     showgrid="false"
     inkscape:zoom="0.4609375"
     inkscape:cx="260.33898"
     inkscape:cy="256"
     inkscape:window-x="0"
     inkscape:window-y="0"
     inkscape:window-maximized="0"
     inkscape:current-layer="Capa_1" /><path
     d="M416,319.998c-25.333,0-48.337,9.934-65.51,26.02l-37.873-69.921c1.469-1.799,2.925-3.622,4.008-5.786l96-192  c7.667-15.333-17.377-67.945-29.391-74.453c-15.547-8.391-34.953-2.633-43.375,12.899L256,171.573L172.141,16.755  c-8.422-15.531-27.828-21.289-43.375-12.899c-12.014,6.508-37.058,59.12-29.391,74.453l96,192c1.083,2.164,2.539,3.987,4.008,5.786  l-37.873,69.921c-17.173-16.086-40.177-26.02-65.51-26.02c-52.938,0-96,43.063-96,96s43.063,96,96,96  c49.915,0,81.331-40.195,95.547-87.046C201.37,392.578,256,305.961,256,305.961s54.63,86.616,64.453,118.99  c14.216,46.851,45.632,87.046,95.547,87.046c52.938,0,96-43.063,96-96S468.938,319.998,416,319.998z M96,447.998  c-17.641,0-32-14.352-32-32c0-17.648,14.359-32,32-32s32,14.352,32,32C128,433.646,113.641,447.998,96,447.998z M416,447.998  c-17.641,0-32-14.352-32-32c0-17.648,14.359-32,32-32s32,14.352,32,32C448,433.646,433.641,447.998,416,447.998z"
     id="path3" /><g
     id="g5" /><g
     id="g7" /><g
     id="g9" /><g
     id="g11" /><g
     id="g13" /><g
     id="g15" /><g
     id="g17" /><g
     id="g19" /><g
     id="g21" /><g
     id="g23" /><g
     id="g25" /><g
     id="g27" /><g
     id="g29" /><g
     id="g31" /><g
     id="g33" /><path
     style="fill:#ff4500;fill-opacity:1;stroke:#ff4500;stroke-width:8.67796612000000067;stroke-miterlimit:4;stroke-opacity:1;stroke-dasharray:none"
     d="M 73.468854,507.35384 C 36.325398,497.35066 10.094233,468.80781 3.0033204,430.67837 -0.22170251,413.33669 3.123502,391.02169 11.426634,374.48858 c 6.937383,-13.81363 26.285783,-34.76313 37.414762,-40.51087 35.920913,-18.55197 77.853234,-15.18186 106.022544,8.52105 l 6.61621,5.56717 6.44,-11.42957 c 3.54201,-6.28628 12.27989,-22.21011 19.41752,-35.38632 l 12.9775,-23.95676 -50.69318,-101.36875 C 121.74074,120.17172 98.928814,72.293159 98.928814,69.527723 c 0,-8.337974 8.115676,-30.402965 16.990376,-46.193622 8.62125,-15.3396807 17.56793,-22.45587174 28.24107,-22.462933 7.5316,-0.004983 19.66489,6.3910409 23.81238,12.552624 1.99878,2.969415 22.19491,39.559625 44.8803,81.311581 22.68539,41.751957 42.13523,75.877987 43.22186,75.835637 1.08666,-0.0423 20.92633,-35.07003 44.08817,-77.839264 23.16186,-42.769241 44.12677,-79.930532 46.58868,-82.580649 5.91022,-6.3620004 17.57126,-10.03884083 26.51609,-8.3607801 9.60721,1.8023218 17.484,10.1009661 26.40872,27.8231061 10.27712,20.407667 14.39714,37.151442 11.57136,47.026173 -1.22034,4.264494 -24.08162,51.197694 -50.80284,104.295994 l -48.58402,96.54238 18.49144,34.16949 c 10.1703,18.79322 19.43756,34.16949 20.59394,34.16949 1.15636,0 5.25143,-2.4018 9.10011,-5.33736 3.8487,-2.93554 12.81408,-8.0146 19.92305,-11.28678 17.77664,-8.18241 46.19685,-9.58297 64.44808,-3.17603 67.80931,23.80388 87.89669,106.46073 38.00162,156.37148 -30.4381,30.44767 -76.20588,36.77106 -110.13445,15.21643 -21.38386,-13.58506 -35.58897,-33.8521 -50.03468,-71.38667 -4.8494,-12.60025 -12.77798,-30.23158 -17.6191,-39.18073 -11.09699,-20.51361 -47.53195,-82.44068 -48.50418,-82.44068 -1.39382,0 -35.37662,57.65704 -47.50086,80.59249 -6.71645,12.70552 -15.18467,31.25467 -18.81826,41.22034 -3.63358,9.96564 -9.47006,23.48887 -12.96994,30.05158 -22.32729,41.86648 -62.83364,61.80944 -103.368876,50.89282 z m 39.334876,-63.62628 c 10.70802,-6.03054 15.41322,-14.3956 15.41322,-27.40214 0,-19.49626 -13.04611,-32.54237 -32.542374,-32.54237 -18.774545,0 -32.281806,13.72052 -31.997861,32.50306 0.396892,26.25376 25.920558,40.51081 49.127015,27.44145 l 0,0 z m 321.31152,-0.41824 c 20.51858,-12.30943 18.66028,-44.96657 -3.22039,-56.59396 -10.00719,-5.31784 -18.75901,-5.06843 -30.32888,0.8643 -20.69593,10.61233 -23.56964,36.84539 -5.84945,53.39757 9.84992,9.20066 26.32407,10.1758 39.39872,2.33209 l 0,0 z"
     id="path3016"
     inkscape:connector-curvature="0" /></svg>