<?xml version="1.0" encoding="UTF-8" standalone="no"?>
<!-- Generator: Adobe Illustrator 16.0.0, SVG Export Plug-In . SVG Version: 6.00 Build 0)  -->

<svg
   xmlns:dc="http://purl.org/dc/elements/1.1/"
   xmlns:cc="http://creativecommons.org/ns#"
   xmlns:rdf="http://www.w3.org/1999/02/22-rdf-syntax-ns#"
   xmlns:svg="http://www.w3.org/2000/svg"
   xmlns="http://www.w3.org/2000/svg"
   xmlns:sodipodi="http://sodipodi.sourceforge.net/DTD/sodipodi-0.dtd"
   xmlns:inkscape="http://www.inkscape.org/namespaces/inkscape"
   version="1.1"
   id="Capa_1"
   x="0px"
   y="0px"
   width="612px"
   height="612px"
   viewBox="0 0 612 612"
   style="enable-background:new 0 0 612 612;"
   xml:space="preserve"
   inkscape:version="0.91 r13725"
   sodipodi:docname="tool_recentfiles.svg"><metadata
     id="metadata41"><rdf:RDF><cc:Work
         rdf:about=""><dc:format>image/svg+xml</dc:format><dc:type
           rdf:resource="http://purl.org/dc/dcmitype/StillImage" /></cc:Work></rdf:RDF></metadata><defs
     id="defs39" /><sodipodi:namedview
     pagecolor="#ffffff"
     bordercolor="#666666"
     borderopacity="1"
     objecttolerance="10"
     gridtolerance="10"
     guidetolerance="10"
     inkscape:pageopacity="0"
     inkscape:pageshadow="2"
     inkscape:window-width="770"
     inkscape:window-height="615"
     id="namedview37"
     showgrid="false"
     inkscape:zoom="0.38562092"
     inkscape:cx="-112.80508"
     inkscape:cy="306"
     inkscape:window-x="0"
     inkscape:window-y="0"
     inkscape:window-maximized="0"
     inkscape:current-layer="Capa_1" /><g
     id="g3"
     style="fill:#008000;stroke:#008000;stroke-opacity:1"><path
       d="M305.016,224.064v252.192l200.778-38.103V315.277c0-5.144,4.48-9.139,9.59-8.553l24.701,3.822   c4.346,0.499,7.627,4.178,7.627,8.553v142.748c0,4.058-2.833,7.564-6.8,8.417l-219.787,47.258   c-10.621,2.283-21.604,2.308-32.235,0.072L71.462,471.859c-3.902-0.82-6.73-4.214-6.834-8.201l-3.756-144.974   c-0.118-4.547,3.322-8.4,7.852-8.798l184.692-16.229c3.203-0.281,5.982-2.325,7.207-5.297l27.824-67.573   C292.037,212.067,305.016,214.635,305.016,224.064z M58.783,141.494L0.825,265.38c-2.832,6.054,2.014,12.885,8.663,12.213   L227.149,255.6c3.076-0.311,5.749-2.247,7.003-5.073l70.035-157.78L65.026,136.675C62.289,137.178,59.963,138.973,58.783,141.494z    M304.188,92.747l74.106,162.712c1.295,2.844,4.029,4.762,7.145,5.013l217.25,17.471c6.547,0.526,11.248-6.178,8.522-12.154   l-56.658-124.212c-1.172-2.569-3.528-4.399-6.308-4.9L304.188,92.747z"
       id="path5"
       style="fill:#008000;stroke:#008000;stroke-opacity:1" /></g><g
     id="g7" /><g
     id="g9" /><g
     id="g11" /><g
     id="g13" /><g
     id="g15" /><g
     id="g17" /><g
     id="g19" /><g
     id="g21" /><g
     id="g23" /><g
     id="g25" /><g
     id="g27" /><g
     id="g29" /><g
     id="g31" /><g
     id="g33" /><g
     id="g35" /></svg>