<?xml version="1.0" encoding="UTF-8" standalone="no"?>
<!-- Generator: Adobe Illustrator 19.0.0, SVG Export Plug-In . SVG Version: 6.00 Build 0)  -->

<svg
   xmlns:dc="http://purl.org/dc/elements/1.1/"
   xmlns:cc="http://creativecommons.org/ns#"
   xmlns:rdf="http://www.w3.org/1999/02/22-rdf-syntax-ns#"
   xmlns:svg="http://www.w3.org/2000/svg"
   xmlns="http://www.w3.org/2000/svg"
   xmlns:sodipodi="http://sodipodi.sourceforge.net/DTD/sodipodi-0.dtd"
   xmlns:inkscape="http://www.inkscape.org/namespaces/inkscape"
   version="1.1"
   id="Capa_1"
   x="0px"
   y="0px"
   viewBox="0 0 60.015 60.015"
   style="enable-background:new 0 0 60.015 60.015;"
   xml:space="preserve"
   width="512px"
   height="512px"
   inkscape:version="0.48.4 r9939"
   sodipodi:docname="tool_selectinvert.svg"><sodipodi:namedview
     pagecolor="#ffffff"
     bordercolor="#666666"
     borderopacity="1"
     objecttolerance="10"
     gridtolerance="10"
     guidetolerance="10"
     inkscape:pageopacity="0"
     inkscape:pageshadow="2"
     inkscape:window-width="1357"
     inkscape:window-height="826"
     id="namedview39"
     showgrid="false"
     inkscape:zoom="0.4609375"
     inkscape:cx="-206.1017"
     inkscape:cy="256"
     inkscape:window-x="156"
     inkscape:window-y="90"
     inkscape:window-maximized="0"
     inkscape:current-layer="Capa_1" /><metadata
     id="metadata43"><rdf:RDF><cc:Work
         rdf:about=""><dc:format>image/svg+xml</dc:format><dc:type
           rdf:resource="http://purl.org/dc/dcmitype/StillImage" /></cc:Work></rdf:RDF></metadata><defs
     id="defs41"><inkscape:perspective
       id="perspective3003"
       inkscape:persp3d-origin="256 : 170.66667 : 1"
       inkscape:vp_z="512 : 256 : 1"
       inkscape:vp_y="0 : 1000 : 0"
       inkscape:vp_x="0 : 256 : 1"
       sodipodi:type="inkscape:persp3d" /></defs><g
     id="g9" /><g
     id="g11" /><g
     id="g13" /><g
     id="g15" /><g
     id="g17" /><g
     id="g19" /><g
     id="g21" /><g
     id="g23" /><g
     id="g25" /><g
     id="g27" /><g
     id="g29" /><g
     id="g31" /><g
     id="g33" /><g
     id="g35" /><g
     id="g37" /><path
     style="fill:#191970;fill-opacity:1;stroke:#191970;stroke-width:0.60346043000000005;stroke-miterlimit:4;stroke-opacity:1;stroke-dasharray:none"
     d="M 4.041936,57.36759 C 3.498421,57.215907 2.73206,56.663571 2.338911,56.14018 l -0.714818,-0.951624 0,-24.619487 0,-24.6194852 1.166217,-1.107397 1.166218,-1.107395 24.688806,0 c 13.578841,0 25.068105,0.100832 25.53169,0.224061 0.463588,0.123236 1.195116,0.716265 1.625615,1.317844 l 0.782731,1.093783 0,24.2273212 c 0,24.059611 -0.0045,24.234204 -0.646959,25.221319 -0.355824,0.546696 -0.948012,1.157707 -1.315975,1.357801 -0.83137,0.452093 -48.993222,0.633648 -50.5805,0.190669 l 0,0 z"
     id="path3077"
     inkscape:connector-curvature="0" /><path
     style="fill:#ffffe0;fill-opacity:1;stroke:#000000;stroke-width:0.46886718999999999;stroke-opacity:1;stroke-miterlimit:4;stroke-dasharray:none"
     d="M 24.149483,44.455212 C 22.77144,43.830137 12.25238,33.489349 10.930457,31.460221 10.285646,30.470441 10.170173,30.017706 10.192191,28.5657 c 0.08033,-5.297164 5.449701,-8.334209 9.622291,-5.4426 0.59426,0.411822 2.402931,2.007078 4.019268,3.545012 l 2.938799,2.796245 7.737919,-7.764194 C 44.959004,11.21615 49.809825,6.6911505 51.313006,6.0262225 c 0.947189,-0.418987 1.528515,-0.499966 2.583998,-0.359951 3.213073,0.426229 5.363786,2.57595 5.78976,5.7870895 0.282341,2.1284 -0.387686,3.261699 -4.570388,7.730453 -6.162817,6.584285 -24.79317,24.867981 -25.850934,25.369925 -1.335801,0.633876 -3.597317,0.590323 -5.115959,-0.09853 l 0,0 z"
     id="path3003"
     inkscape:connector-curvature="0" /></svg>