<?xml version="1.0" encoding="UTF-8" standalone="no"?>
<!-- Generator: Adobe Illustrator 19.0.0, SVG Export Plug-In . SVG Version: 6.00 Build 0)  -->

<svg
   xmlns:dc="http://purl.org/dc/elements/1.1/"
   xmlns:cc="http://creativecommons.org/ns#"
   xmlns:rdf="http://www.w3.org/1999/02/22-rdf-syntax-ns#"
   xmlns:svg="http://www.w3.org/2000/svg"
   xmlns="http://www.w3.org/2000/svg"
   xmlns:sodipodi="http://sodipodi.sourceforge.net/DTD/sodipodi-0.dtd"
   xmlns:inkscape="http://www.inkscape.org/namespaces/inkscape"
   version="1.1"
   id="Capa_1"
   x="0px"
   y="0px"
   viewBox="0 0 53.602 53.602"
   style="enable-background:new 0 0 53.602 53.602;"
   xml:space="preserve"
   inkscape:version="0.48.4 r9939"
   width="100%"
   height="100%"
   sodipodi:docname="tool_duplicate.svg"><metadata
     id="metadata41"><rdf:RDF><cc:Work
         rdf:about=""><dc:format>image/svg+xml</dc:format><dc:type
           rdf:resource="http://purl.org/dc/dcmitype/StillImage" /></cc:Work></rdf:RDF></metadata><defs
     id="defs39" /><sodipodi:namedview
     pagecolor="#ffffff"
     bordercolor="#666666"
     borderopacity="1"
     objecttolerance="10"
     gridtolerance="10"
     guidetolerance="10"
     inkscape:pageopacity="0"
     inkscape:pageshadow="2"
     inkscape:window-width="752"
     inkscape:window-height="480"
     id="namedview37"
     showgrid="false"
     inkscape:zoom="4.4028208"
     inkscape:cx="34.795223"
     inkscape:cy="26.801"
     inkscape:window-x="0"
     inkscape:window-y="0"
     inkscape:window-maximized="0"
     inkscape:current-layer="Capa_1" /><path
     d="M14.801,7.301c-7.904,0-12.411,3.814-13.398,11.338c-0.344,2.616-0.2,5.447,0.426,8.416  C4.969,41.941,12.619,51.2,14.8,53.602c2.184-2.401,9.832-11.66,12.973-26.547c0.626-2.969,0.77-5.8,0.426-8.416  C27.211,11.115,22.705,7.301,14.801,7.301z M14.801,28.301c-4.653,0-8.438-3.785-8.438-8.438s3.785-8.438,8.438-8.438  s8.438,3.785,8.438,8.438S19.454,28.301,14.801,28.301z"
     id="path3"
     style="fill:#ff7800;fill-opacity:1;stroke-width:0.49999999000000001;stroke-miterlimit:4;stroke-dasharray:none;stroke:#ff7800;stroke-opacity:1" /><path
     d="M52.199,11.338C51.211,3.814,46.705,0,38.801,0c-7.274,0-11.663,3.24-13.087,9.619c2.13,2.105,3.477,5.055,3.972,8.824  c0.365,2.783,0.216,5.785-0.445,8.921c-0.153,0.727-0.326,1.428-0.499,2.129c3.594,9.196,8.401,14.984,10.058,16.808  c2.184-2.401,9.832-11.66,12.973-26.547C52.399,16.785,52.542,13.954,52.199,11.338z M38.801,21c-4.653,0-8.437-3.785-8.437-8.438  s3.785-8.438,8.437-8.438s8.438,3.785,8.438,8.438S43.454,21,38.801,21z"
     id="path5"
     style="fill:#ff7800;fill-opacity:1;stroke-width:0.49999999000000001;stroke-miterlimit:4;stroke-dasharray:none;stroke:#ff7800;stroke-opacity:1" /><g
     id="g7"
     style="fill:#ff7800;fill-opacity:1;stroke-width:0.49999999000000001;stroke-miterlimit:4;stroke-dasharray:none;stroke:#d3d3d3;stroke-opacity:1" /><g
     id="g9"
     style="fill:#ff7800;fill-opacity:1;stroke-width:0.49999999000000001;stroke-miterlimit:4;stroke-dasharray:none;stroke:#d3d3d3;stroke-opacity:1" /><g
     id="g11"
     style="fill:#ff7800;fill-opacity:1;stroke-width:0.49999999000000001;stroke-miterlimit:4;stroke-dasharray:none;stroke:#d3d3d3;stroke-opacity:1" /><g
     id="g13"
     style="fill:#ff7800;fill-opacity:1;stroke-width:0.49999999000000001;stroke-miterlimit:4;stroke-dasharray:none;stroke:#d3d3d3;stroke-opacity:1" /><g
     id="g15"
     style="fill:#ff7800;fill-opacity:1;stroke-width:0.49999999000000001;stroke-miterlimit:4;stroke-dasharray:none;stroke:#d3d3d3;stroke-opacity:1" /><g
     id="g17"
     style="fill:#ff7800;fill-opacity:1;stroke-width:0.49999999000000001;stroke-miterlimit:4;stroke-dasharray:none;stroke:#d3d3d3;stroke-opacity:1" /><g
     id="g19"
     style="fill:#ff7800;fill-opacity:1;stroke-width:0.49999999000000001;stroke-miterlimit:4;stroke-dasharray:none;stroke:#d3d3d3;stroke-opacity:1" /><g
     id="g21"
     style="fill:#ff7800;fill-opacity:1;stroke-width:0.49999999000000001;stroke-miterlimit:4;stroke-dasharray:none;stroke:#d3d3d3;stroke-opacity:1" /><g
     id="g23"
     style="fill:#ff7800;fill-opacity:1;stroke-width:0.49999999000000001;stroke-miterlimit:4;stroke-dasharray:none;stroke:#d3d3d3;stroke-opacity:1" /><g
     id="g25"
     style="fill:#ff7800;fill-opacity:1;stroke-width:0.49999999000000001;stroke-miterlimit:4;stroke-dasharray:none;stroke:#d3d3d3;stroke-opacity:1" /><g
     id="g27"
     style="fill:#ff7800;fill-opacity:1;stroke-width:0.49999999000000001;stroke-miterlimit:4;stroke-dasharray:none;stroke:#d3d3d3;stroke-opacity:1" /><g
     id="g29"
     style="fill:#ff7800;fill-opacity:1;stroke-width:0.49999999000000001;stroke-miterlimit:4;stroke-dasharray:none;stroke:#d3d3d3;stroke-opacity:1" /><g
     id="g31"
     style="fill:#ff7800;fill-opacity:1;stroke-width:0.49999999000000001;stroke-miterlimit:4;stroke-dasharray:none;stroke:#d3d3d3;stroke-opacity:1" /><g
     id="g33"
     style="fill:#ff7800;fill-opacity:1;stroke-width:0.49999999000000001;stroke-miterlimit:4;stroke-dasharray:none;stroke:#d3d3d3;stroke-opacity:1" /><g
     id="g35"
     style="fill:#ff7800;fill-opacity:1;stroke-width:0.49999999000000001;stroke-miterlimit:4;stroke-dasharray:none;stroke:#d3d3d3;stroke-opacity:1" /></svg>