<?xml version="1.0" encoding="UTF-8" standalone="no"?>
<!-- Generator: Adobe Illustrator 16.0.0, SVG Export Plug-In . SVG Version: 6.00 Build 0)  -->

<svg
   xmlns:dc="http://purl.org/dc/elements/1.1/"
   xmlns:cc="http://creativecommons.org/ns#"
   xmlns:rdf="http://www.w3.org/1999/02/22-rdf-syntax-ns#"
   xmlns:svg="http://www.w3.org/2000/svg"
   xmlns="http://www.w3.org/2000/svg"
   xmlns:sodipodi="http://sodipodi.sourceforge.net/DTD/sodipodi-0.dtd"
   xmlns:inkscape="http://www.inkscape.org/namespaces/inkscape"
   version="1.1"
   id="Capa_1"
   x="0px"
   y="0px"
   width="466.546px"
   height="466.546px"
   viewBox="0 0 466.546 466.546"
   style="enable-background:new 0 0 466.546 466.546;"
   xml:space="preserve"
   inkscape:version="0.48.4 r9939"
   sodipodi:docname="power-circular-button.svg"><metadata
     id="metadata41"><rdf:RDF><cc:Work
         rdf:about=""><dc:format>image/svg+xml</dc:format><dc:type
           rdf:resource="http://purl.org/dc/dcmitype/StillImage" /><dc:title></dc:title></cc:Work></rdf:RDF></metadata><defs
     id="defs39" /><sodipodi:namedview
     pagecolor="#ffffff"
     bordercolor="#666666"
     borderopacity="1"
     objecttolerance="10"
     gridtolerance="10"
     guidetolerance="10"
     inkscape:pageopacity="0"
     inkscape:pageshadow="2"
     inkscape:window-width="1599"
     inkscape:window-height="717"
     id="namedview37"
     showgrid="false"
     inkscape:zoom="0.50584509"
     inkscape:cx="235.46132"
     inkscape:cy="233.27299"
     inkscape:window-x="42"
     inkscape:window-y="64"
     inkscape:window-maximized="0"
     inkscape:current-layer="Capa_1" /><g
     id="g3"><path
       d="M233.272,0.002C104.443,0.002,0,104.443,0,233.271c0,128.835,104.435,233.272,233.272,233.272   c128.833,0,233.274-104.445,233.274-233.272C466.546,104.438,362.105,0.002,233.272,0.002z M209.72,61.401   c0-13.01,10.546-23.552,23.552-23.552c13.01,0,23.55,10.542,23.55,23.552V223.58c0,13.006-10.54,23.554-23.55,23.554   c-13.006,0-23.552-10.548-23.552-23.554V61.401z M233.272,405.56c-91.006,0-165.046-74.05-165.046-165.05   c0-59.038,31.897-113.976,83.247-143.338c11.289-6.45,25.677-2.533,32.141,8.756c6.458,11.289,2.533,25.678-8.756,32.138   c-36.722,21.001-59.528,60.254-59.528,102.444c0,65.036,52.912,117.946,117.942,117.946c65.035,0,117.949-52.91,117.949-117.946   c0-42.19-22.818-81.443-59.539-102.444c-11.293-6.452-15.216-20.843-8.756-32.138c6.464-11.297,20.847-15.214,32.147-8.756   c51.347,29.362,83.246,84.284,83.246,143.338C398.32,331.51,324.287,405.56,233.272,405.56z"
       id="path5" /></g><g
     id="g7" /><g
     id="g9" /><g
     id="g11" /><g
     id="g13" /><g
     id="g15" /><g
     id="g17" /><g
     id="g19" /><g
     id="g21" /><g
     id="g23" /><g
     id="g25" /><g
     id="g27" /><g
     id="g29" /><g
     id="g31" /><g
     id="g33" /><g
     id="g35" /><path
     style="fill:#dc143c;fill-opacity:1;stroke:#000000;stroke-width:1.97688972999999990;stroke-opacity:1"
     d="M 187.60684,460.5503 C 141.23898,450.80192 103.40979,430.47188 70.015697,397.35485 10.477468,338.31061 -12.580002,251.41778 9.9515052,171.00097 29.867956,99.917512 85.565721,39.857299 154.52622,15.102645 187.75544,3.1743993 235.45125,-1.4578581 268.99108,3.9857196 343.48361,16.075994 408.0895,63.951661 441.33687,131.70114 c 16.93969,34.51869 23.03454,61.39421 23.03454,101.57185 0,40.17764 -6.09485,67.05318 -23.03454,101.57185 -28.74876,58.5825 -81.12063,102.83387 -142.88936,120.73376 -9.49484,2.7515 -22.75022,5.89325 -29.45643,6.98166 -19.96437,3.24026 -61.26322,2.22031 -81.38424,-2.00996 l 0,0 z m 81.8258,-58.55097 c 40.83497,-8.55592 78.50872,-34.50839 102.51615,-70.62073 31.89803,-47.98147 35.59408,-113.25255 9.36941,-165.46071 -15.81012,-31.47481 -53.41009,-68.448252 -73.42699,-72.203443 -14.21992,-2.667677 -28.35899,9.109793 -28.35899,23.622303 0,10.67921 2.88989,14.58139 20.75833,28.02955 32.50825,24.46642 49.01125,56.62113 49.17549,95.81425 0.13561,32.34412 -10.9016,57.97746 -35.45914,82.35265 -37.43581,37.15781 -92.42584,44.24149 -139.24984,17.9378 -23.91093,-13.43212 -46.96473,-43.86799 -54.3912,-71.80781 -3.18717,-11.99077 -4.25494,-40.88693 -1.89559,-51.29855 6.75775,-29.82134 22.42609,-53.76051 47.39078,-72.40693 17.75747,-13.26326 20.58695,-17.10652 20.68729,-28.09943 0.14131,-15.48067 -13.24702,-27.124426 -27.83396,-24.207037 -8.2781,1.655622 -28.37966,15.765257 -42.54058,29.859977 -21.203429,21.1043 -35.093895,45.52256 -43.883305,77.14309 -5.267061,18.94863 -4.5649,64.57736 1.308123,85.00626 16.676299,58.00737 65.355252,104.02053 123.168182,116.42316 25.84157,5.54381 45.91528,5.5205 72.66584,-0.0844 l 0,2e-5 z m -20.81076,-159.7546 c 2.88808,-2.67657 6.13158,-7.18249 7.2078,-10.01314 1.18104,-3.10637 1.95675,-38.8723 1.95675,-90.21968 0,-93.252928 -0.11328,-94.23147 -11.70408,-101.078306 -13.7277,-8.109156 -31.34612,-1.189648 -35.82692,14.070776 -1.42612,4.856978 -1.92976,35.46414 -1.51839,92.27391 0.49905,68.91365 1.14118,85.7967 3.39195,89.18159 7.5771,11.39511 27.10002,14.48987 36.49289,5.78485 l 0,0 z"
     id="path3018"
     inkscape:connector-curvature="0"
     inkscape:export-filename="/home/laurent/Bureau/flaticon/007-my-icons-collection/svg/icons/tool_quit.png"
     inkscape:export-xdpi="198"
     inkscape:export-ydpi="198" /></svg>