<?xml version="1.0" encoding="UTF-8" standalone="no"?>
<!-- Generator: Adobe Illustrator 16.0.0, SVG Export Plug-In . SVG Version: 6.00 Build 0)  -->

<svg
   xmlns:dc="http://purl.org/dc/elements/1.1/"
   xmlns:cc="http://creativecommons.org/ns#"
   xmlns:rdf="http://www.w3.org/1999/02/22-rdf-syntax-ns#"
   xmlns:svg="http://www.w3.org/2000/svg"
   xmlns="http://www.w3.org/2000/svg"
   xmlns:sodipodi="http://sodipodi.sourceforge.net/DTD/sodipodi-0.dtd"
   xmlns:inkscape="http://www.inkscape.org/namespaces/inkscape"
   version="1.1"
   id="Capa_1"
   x="0px"
   y="0px"
   width="512px"
   height="512px"
   viewBox="0 0 97.987 97.987"
   style="enable-background:new 0 0 97.987 97.987;"
   xml:space="preserve"
   inkscape:version="0.48.4 r9939"
   sodipodi:docname="tool_pref.svg"><metadata
     id="metadata41"><rdf:RDF><cc:Work
         rdf:about=""><dc:format>image/svg+xml</dc:format><dc:type
           rdf:resource="http://purl.org/dc/dcmitype/StillImage" /></cc:Work></rdf:RDF></metadata><defs
     id="defs39" /><sodipodi:namedview
     pagecolor="#ffffff"
     bordercolor="#666666"
     borderopacity="1"
     objecttolerance="10"
     gridtolerance="10"
     guidetolerance="10"
     inkscape:pageopacity="0"
     inkscape:pageshadow="2"
     inkscape:window-width="1035"
     inkscape:window-height="761"
     id="namedview37"
     showgrid="false"
     inkscape:zoom="0.32593203"
     inkscape:cx="169.32727"
     inkscape:cy="176.11123"
     inkscape:window-x="0"
     inkscape:window-y="0"
     inkscape:window-maximized="0"
     inkscape:current-layer="Capa_1" /><g
     id="g3"
     style="stroke:#d2691e;fill:#d2691e"><path
       d="M97.105,21.354c-0.176-0.698-0.714-1.247-1.408-1.438c-0.69-0.191-1.437,0.004-1.944,0.514L78.511,35.67L62.303,19.46   L77.54,4.221c0.51-0.509,0.706-1.252,0.515-1.946c-0.191-0.694-0.742-1.231-1.439-1.407c-2.264-0.57-4.599-0.858-6.939-0.858   c-7.544,0-14.634,2.935-19.963,8.263c-7.48,7.479-10.154,18.826-6.813,28.908L3.699,76.375C-1.233,81.31-1.232,89.338,3.7,94.271   c2.391,2.391,5.568,3.706,8.947,3.706c3.38,0,6.558-1.315,8.947-3.706L60.79,55.074l0,0c2.889,0.959,5.901,1.444,8.956,1.444   c7.541,0,14.627-2.933,19.953-8.258C96.802,41.159,99.569,31.1,97.105,21.354z"
       fill="#933EC5"
       id="path5"
       style="stroke:#d2691e;fill:#d2691e" /></g><g
     id="g7" /><g
     id="g9" /><g
     id="g11" /><g
     id="g13" /><g
     id="g15" /><g
     id="g17" /><g
     id="g19" /><g
     id="g21" /><g
     id="g23" /><g
     id="g25" /><g
     id="g27" /><g
     id="g29" /><g
     id="g31" /><g
     id="g33" /><g
     id="g35" /><path
     style="fill:#d2691e;fill-opacity:1;stroke:#d2691e;stroke-width:12.27249718000000023;stroke-miterlimit:4;stroke-opacity:1;stroke-dasharray:none"
     d="M 37.700244,499.161 C 9.8175258,484.5949 -2.8026114,450.86437 9.0046489,422.46473 12.19146,414.79961 49.013544,375.72655 121.25774,303.34953 L 228.76837,195.64124 225.4508,183.69268 c -5.33976,-19.23166 -4.06617,-56.54662 2.67439,-78.35709 C 246.59088,45.586029 304.14314,3.7696195 366.30085,4.9396956 c 23.04428,0.4337929 35.04237,3.3668169 36.07847,8.8196594 0.47848,2.5182 -17.7996,23.199449 -40.61791,45.958332 l -41.48792,41.379783 45.21854,45.29405 45.21854,45.29406 41.93797,-41.8577 c 27.10158,-27.0497 43.51055,-41.25423 46.38317,-40.1519 9.03867,3.46846 11.14156,45.66215 3.6997,74.23337 -16.10345,61.82534 -73.01357,106.08579 -136.14384,105.88255 -12.81372,-0.0413 -29.40657,-1.48304 -36.87303,-3.20398 l -13.57538,-3.12897 -109.1496,108.76 C 115.22678,483.65418 95.885041,501.51183 85.567472,504.32422 66.34934,509.56277 55.337884,508.37504 37.700244,499.161 l 0,0 z"
     id="path2998"
     inkscape:connector-curvature="0"
     transform="scale(0.19138086,0.19138086)" /></svg>