<?xml version="1.0" encoding="UTF-8" standalone="no"?>
<!-- Generator: Adobe Illustrator 16.0.0, SVG Export Plug-In . SVG Version: 6.00 Build 0)  -->

<svg
   xmlns:dc="http://purl.org/dc/elements/1.1/"
   xmlns:cc="http://creativecommons.org/ns#"
   xmlns:rdf="http://www.w3.org/1999/02/22-rdf-syntax-ns#"
   xmlns:svg="http://www.w3.org/2000/svg"
   xmlns="http://www.w3.org/2000/svg"
   xmlns:sodipodi="http://sodipodi.sourceforge.net/DTD/sodipodi-0.dtd"
   xmlns:inkscape="http://www.inkscape.org/namespaces/inkscape"
   version="1.1"
   id="Capa_1"
   x="0px"
   y="0px"
   width="512px"
   height="512px"
   viewBox="0 0 512 512"
   style="enable-background:new 0 0 512 512;"
   xml:space="preserve"
   inkscape:version="0.48.4 r9939"
   sodipodi:docname="tool_find.svg"><metadata
     id="metadata41"><rdf:RDF><cc:Work
         rdf:about=""><dc:format>image/svg+xml</dc:format><dc:type
           rdf:resource="http://purl.org/dc/dcmitype/StillImage" /></cc:Work></rdf:RDF></metadata><defs
     id="defs39" /><sodipodi:namedview
     pagecolor="#ffffff"
     bordercolor="#666666"
     borderopacity="1"
     objecttolerance="10"
     gridtolerance="10"
     guidetolerance="10"
     inkscape:pageopacity="0"
     inkscape:pageshadow="2"
     inkscape:window-width="1002"
     inkscape:window-height="758"
     id="namedview37"
     showgrid="false"
     inkscape:zoom="0.4609375"
     inkscape:cx="192"
     inkscape:cy="256"
     inkscape:window-x="326"
     inkscape:window-y="176"
     inkscape:window-maximized="0"
     inkscape:current-layer="Capa_1" /><g
     id="g3"><path
       d="M256,96C144.341,96,47.559,161.021,0,256c47.559,94.979,144.341,160,256,160c111.656,0,208.439-65.021,256-160   C464.441,161.021,367.656,96,256,96z M382.225,180.852c30.082,19.187,55.572,44.887,74.719,75.148   c-19.146,30.261-44.639,55.961-74.719,75.148C344.428,355.257,300.779,368,256,368c-44.78,0-88.428-12.743-126.225-36.852   c-30.08-19.188-55.57-44.888-74.717-75.148c19.146-30.262,44.637-55.962,74.717-75.148c1.959-1.25,3.938-2.461,5.929-3.65   C130.725,190.866,128,205.613,128,221c0,70.691,57.308,128,128,128c70.691,0,128-57.309,128-128   c0-15.387-2.725-30.134-7.703-43.799C378.285,178.39,380.266,179.602,382.225,180.852z M256,205c0,26.51-21.49,48-48,48   s-48-21.49-48-48s21.49-48,48-48S256,178.49,256,205z"
       id="path5" /></g><g
     id="g7" /><g
     id="g9" /><g
     id="g11" /><g
     id="g13" /><g
     id="g15" /><g
     id="g17" /><g
     id="g19" /><g
     id="g21" /><g
     id="g23" /><g
     id="g25" /><g
     id="g27" /><g
     id="g29" /><g
     id="g31" /><g
     id="g33" /><g
     id="g35" /><path
     style="fill:#ff7800;fill-opacity:1;stroke:#dcdcdc;stroke-width:4;stroke-miterlimit:4;stroke-opacity:1;stroke-dasharray:none;opacity:1"
     d="M 213.91186,411.47077 C 129.81989,398.17452 55.731768,347.79355 11.886094,274.09033 L 1.0945907,255.95015 10.214994,240.46321 C 62.909655,150.98482 154.31739,98.078465 256.21695,98.078465 c 76.3694,0 144.23858,28.139095 198.64311,82.358985 21.36348,21.29096 35.20645,39.14425 48.2654,62.2479 l 7.49754,13.2645 -6.14612,11.23906 c -15.21124,27.81591 -43.50178,61.42367 -70.61498,83.88706 -59.71577,49.47476 -143.50496,72.48195 -219.95004,60.3948 z m 72.82044,-44.54992 c 64.53849,-8.97646 122.30886,-43.55308 161.79129,-96.83499 4.60422,-6.21346 8.37133,-12.38332 8.37133,-13.71081 0,-4.40167 -13.60912,-22.50003 -29.14732,-38.76217 -14.17971,-14.84034 -46.99431,-41.45017 -51.11537,-41.45017 -0.98189,0 -0.43042,5.12543 1.22548,11.38983 11.96056,45.24761 0.1484,89.40387 -32.70489,122.25713 -31.58413,31.58414 -75.45623,44.43753 -117.68938,34.47994 -46.01087,-10.84829 -85.39096,-50.74183 -95.0443,-96.28358 -3.96867,-18.72305 -3.89372,-33.5562 0.27144,-53.72103 1.86389,-9.02366 3.01374,-16.78181 2.55522,-17.24033 -0.45852,-0.45852 -7.77419,4.05618 -16.25703,10.03266 -18.65477,13.14299 -43.864127,38.17732 -56.36935,55.978 l -9.190749,13.08265 12.624623,16.96152 C 117.2602,341.89733 203.38541,378.51336 286.7323,366.92085 z M 226.92881,249.74312 c 12.10375,-5.48732 18.7305,-11.54579 24.11609,-22.04804 16.90156,-32.95911 -6.13701,-70.85617 -43.16882,-71.01015 -28.12597,-0.11694 -48.04256,19.65229 -48.15386,47.79758 -0.14146,35.77326 35.37472,59.69181 67.20659,45.26061 z"
     id="path3018"
     inkscape:connector-curvature="0" /></svg>