<?xml version="1.0" encoding="UTF-8" standalone="no"?>
<!-- Generator: Adobe Illustrator 18.1.1, SVG Export Plug-In . SVG Version: 6.00 Build 0)  -->

<svg
   xmlns:dc="http://purl.org/dc/elements/1.1/"
   xmlns:cc="http://creativecommons.org/ns#"
   xmlns:rdf="http://www.w3.org/1999/02/22-rdf-syntax-ns#"
   xmlns:svg="http://www.w3.org/2000/svg"
   xmlns="http://www.w3.org/2000/svg"
   xmlns:sodipodi="http://sodipodi.sourceforge.net/DTD/sodipodi-0.dtd"
   xmlns:inkscape="http://www.inkscape.org/namespaces/inkscape"
   version="1.1"
   id="Capa_1"
   x="0px"
   y="0px"
   viewBox="0 0 296.554 296.554"
   style="enable-background:new 0 0 296.554 296.554;"
   xml:space="preserve"
   inkscape:version="0.48.4 r9939"
   width="100%"
   height="100%"
   sodipodi:docname="tool_new.svg"><metadata
     id="metadata41"><rdf:RDF><cc:Work
         rdf:about=""><dc:format>image/svg+xml</dc:format><dc:type
           rdf:resource="http://purl.org/dc/dcmitype/StillImage" /></cc:Work></rdf:RDF></metadata><defs
     id="defs39" /><sodipodi:namedview
     pagecolor="#ffffff"
     bordercolor="#666666"
     borderopacity="1"
     objecttolerance="10"
     gridtolerance="10"
     guidetolerance="10"
     inkscape:pageopacity="0"
     inkscape:pageshadow="2"
     inkscape:window-width="1674"
     inkscape:window-height="720"
     id="namedview37"
     showgrid="false"
     inkscape:zoom="0.79580785"
     inkscape:cx="-74.1385"
     inkscape:cy="148.277"
     inkscape:window-x="0"
     inkscape:window-y="0"
     inkscape:window-maximized="0"
     inkscape:current-layer="Capa_1" /><g
     id="g3"><path
       style="fill:#010002;"
       d="M64.536,296.554h167.491c20.201,0,36.632-16.41,36.632-36.572V75.097c0-0.234,0.005-0.468,0-0.702   v-8.8L200.621,0h-9.73c-0.005,0-0.016,0-0.022,0s-0.016,0-0.022,0H64.536C44.33,0,27.893,16.415,27.893,36.583v223.399   C27.893,280.15,44.33,296.554,64.536,296.554z M63.911,36.583c0-0.326,0.267-0.566,0.625-0.566h106.029v22.012   c0,27.549,23.638,37.551,39.526,37.551h22.556v164.412c0,0.326-0.261,0.56-0.62,0.56H64.536c-0.364,0-0.625-0.234-0.625-0.56   V36.583z"
       id="path5" /></g><g
     id="g7" /><g
     id="g9" /><g
     id="g11" /><g
     id="g13" /><g
     id="g15" /><g
     id="g17" /><g
     id="g19" /><g
     id="g21" /><g
     id="g23" /><g
     id="g25" /><g
     id="g27" /><g
     id="g29" /><g
     id="g31" /><g
     id="g33" /><g
     id="g35" /><path
     style="fill:#008000;fill-opacity:1;stroke:#008000;stroke-width:5.02633904999999981;stroke-miterlimit:4;stroke-opacity:1;stroke-dasharray:none"
     d="m 58.234844,295.01815 c -10.9801,-2.223 -20.549255,-9.38425 -25.988683,-19.44912 l -2.716419,-5.02633 0,-121.88872 0,-121.888725 2.936992,-5.654631 C 36.380973,13.574488 41.582078,8.3186471 48.751999,4.6539764 l 5.909437,-3.0204162 72.881914,-0.3358611 72.88192,-0.33586113 33.64189,32.30214003 33.64189,32.30214 -0.3424,102.488292 c -0.34189,102.33893 -0.34635,102.49561 -3.05881,107.51462 -3.97057,7.34698 -10.17603,13.14922 -18.01723,16.84655 l -6.91122,3.25881 -87.96093,0.20056 c -48.37851,0.11032 -90.311138,-0.27525 -93.183616,-0.8568 z m 175.489916,-116.83443 0,-82.934596 -12.87999,-0.01963 c -26.16869,-0.03988 -39.97774,-6.890834 -46.95396,-23.294827 -1.45109,-3.412103 -2.29924,-9.959896 -2.71931,-20.993519 l -0.6105,-16.03482 -53.55174,0.32751 -53.55173,0.327508 -0.320864,112.778484 -0.320863,112.77848 85.454477,0 85.45448,0 0,-82.93459 z"
     id="path3018"
     inkscape:connector-curvature="0" /></svg>